<?xml version="1.0" encoding="utf-8"?>
<!-- Generator: Adobe Illustrator 21.0.2, SVG Export Plug-In . SVG Version: 6.00 Build 0)  -->
<svg version="1.1" id="Layer_1" xmlns="http://www.w3.org/2000/svg" xmlns:xlink="http://www.w3.org/1999/xlink" x="0px" y="0px"
	 viewBox="0 0 1467 772" style="enable-background:new 0 0 1467 772;" xml:space="preserve">
<style type="text/css">
	.st0{fill:#FFFFFF;}
	.st1{fill:#D6E037;}
	.st2{enable-background:new    ;}
	.st3{fill:#004529;}
	.st4{fill:#007E4B;}
	.st5{fill:#34A644;}
	.st6{fill:#1D5B25;}
	.st7{fill:#87B841;}
	.st8{fill:#4A6524;}
	.st9{clip-path:url(#SVGID_2_);enable-background:new    ;}
	.st10{fill:#1E5E26;}
	.st11{fill:#231F20;}
	.st12{fill:#00653A;}
	.st13{clip-path:url(#SVGID_4_);fill:url(#SVGID_5_);}
	.st14{clip-path:url(#SVGID_7_);fill:url(#SVGID_8_);}
	.st15{clip-path:url(#SVGID_10_);fill:url(#SVGID_11_);}
	.st16{clip-path:url(#SVGID_13_);fill:url(#SVGID_14_);}
	.st17{clip-path:url(#SVGID_16_);fill:url(#SVGID_17_);}
	.st18{clip-path:url(#SVGID_19_);fill:url(#SVGID_20_);}
</style>
<g id="base">
	<path class="st0" d="M1042.4,56.8l-28.6-7.2c0,0-639.7,108.9-693.6,118c-54.3,9.1-109.3,42.3-121.6,66
		c-12.6,24.4-19.4,30.1-15.3,48.6c4.2,18.9,45.8,134.6,45.8,134.6l64.1-11.8l94.1,244.2l85.7-18.4l19.5,46.3l310.6-64.4l-10.4-18.5
		L1357,475.1l15.4-33.8L1042.4,56.8z"/>
	<path class="st1" d="M324.4,218.5c0,0-6.2,2.5-12.8,5.3c-5.6,2.4-10,6.5-13.8,10c-5.8,8-18.5,23-12.8,37.8
		c4,10.2,24.6,56.1,24.6,56.1l-22,4l17.4,46l-57.3,10.7c0,0-35-99.4-36.7-104.4c-1.8-5-1.3-13.9-1.3-13.9l24.3-4.3
		c0,0,10-32.8,31.9-48c21.6-15,48.2-24.1,48.2-24.1L324.4,218.5z"/>
	<polygon class="st1" points="529.8,310.9 559.9,373 596.1,366.1 628.8,431.2 591.5,438.5 599.2,454.3 636.7,446.9 645.6,445.2 
		661.2,442.1 619.9,361.6 594.3,311.8 588.4,300.1 	"/>
</g>
<g id="shop-woolworths">
	<g>
		<g class="st2">
			<g>
				<polygon class="st3" points="1332.5,445.5 1325.3,455.3 978.1,528.1 985.3,518.3 				"/>
			</g>
			<g>
				<polygon class="st3" points="985.3,518.3 978.1,528.1 782.4,569.1 789.7,559.4 				"/>
			</g>
			<g>
				<polygon class="st4" points="990.2,59.4 1056.6,80.7 1345.4,419.4 1332.5,445.5 985.3,518.3 789.7,559.4 760.4,565.5 
					528.8,137.7 				"/>
			</g>
			<g>
				<polygon class="st3" points="789.7,559.4 782.4,569.1 753.1,575.2 760.4,565.5 				"/>
			</g>
			<g>
				<polygon class="st3" points="760.4,565.5 753.1,575.2 521.5,147.4 528.8,137.7 				"/>
			</g>
		</g>
	</g>
</g>
<g id="shop-bws">
	<g>
		<g class="st2">
			<g>
				<polygon class="st4" points="526.6,138 591.4,258.4 486,277.4 426.4,154.9 				"/>
			</g>
			<g>
				<polygon class="st3" points="591.4,258.4 584.2,268.1 478.8,287.1 486,277.4 				"/>
			</g>
			<g>
				<polygon class="st3" points="486,277.4 478.8,287.1 419.1,164.7 426.4,154.9 				"/>
			</g>
		</g>
	</g>
</g>
<g id="shop-t8">
	<g>
		<g class="st2">
			<g>
				<polygon class="st5" points="669.9,468.3 726.7,573.3 655.2,588.5 601.1,482.2 				"/>
			</g>
			<g>
				<polygon class="st6" points="726.7,573.3 719.4,583.1 648,598.2 655.2,588.5 				"/>
			</g>
			<g>
				<polygon class="st6" points="655.2,588.5 648,598.2 593.8,492 601.1,482.2 				"/>
			</g>
		</g>
	</g>
</g>
<g id="shop-t7">
	<g>
		<g class="st2">
			<g>
				<polygon class="st5" points="599.2,482.4 652.1,589.4 584,603.6 533.6,495.5 				"/>
			</g>
			<g>
				<polygon class="st6" points="652.1,589.4 644.9,599.1 576.8,613.4 584,603.6 				"/>
			</g>
			<g>
				<polygon class="st6" points="584,603.6 576.8,613.4 526.4,505.2 533.6,495.5 				"/>
			</g>
		</g>
	</g>
</g>
<g id="shop-t5">
	<g>
		<g class="st2">
			<g>
				<polygon class="st5" points="531.2,495.8 557.4,552 416.7,580.8 393.5,523.3 				"/>
			</g>
			<g>
				<polygon class="st6" points="557.4,552 550.1,561.7 409.5,590.5 416.7,580.8 				"/>
			</g>
			<g>
				<polygon class="st6" points="416.7,580.8 409.5,590.5 386.2,533 393.5,523.3 				"/>
			</g>
		</g>
	</g>
</g>
<g id="centre-management">
	<g>
		<g class="st2">
			<g>
				<polygon class="st7" points="424.8,154.9 441.4,189 408,194.8 391.9,160.4 				"/>
			</g>
			<g>
				<polygon class="st8" points="441.4,189 434.2,198.8 400.8,204.6 408,194.8 				"/>
			</g>
			<g>
				<polygon class="st8" points="408,194.8 400.8,204.6 384.6,170.2 391.9,160.4 				"/>
			</g>
		</g>
	</g>
</g>
<g id="toilet-disabled">
	<g>
		<g class="st2">
			<g>
				<polygon class="st7" points="421.8,202.6 427.8,215.1 394.5,220.9 388.7,208.3 				"/>
			</g>
			<g>
				<polygon class="st8" points="427.8,215.1 420.5,224.9 387.2,230.7 394.5,220.9 				"/>
			</g>
			<g>
				<polygon class="st8" points="394.5,220.9 387.2,230.7 381.4,218 388.7,208.3 				"/>
			</g>
		</g>
	</g>
</g>
<g id="toilet-male">
	<g>
		<g class="st2">
			<g>
				<polygon class="st7" points="428,216.6 437.3,236.1 364.3,249 355.6,229.2 				"/>
			</g>
			<g>
				<polygon class="st8" points="437.3,236.1 430,245.9 357.1,258.7 364.3,249 				"/>
			</g>
			<g>
				<polygon class="st8" points="364.3,249 357.1,258.7 348.4,239 355.6,229.2 				"/>
			</g>
		</g>
	</g>
</g>
<g id="toilet-baby">
	<g>
		<g class="st2">
			<g>
				<polygon class="st7" points="437.4,237.3 448.8,261.2 375.1,274.4 364.5,250.1 				"/>
			</g>
			<g>
				<polygon class="st8" points="448.8,261.2 441.5,271 367.8,284.1 375.1,274.4 				"/>
			</g>
			<g>
				<polygon class="st8" points="375.1,274.4 367.8,284.1 357.2,259.9 364.5,250.1 				"/>
			</g>
		</g>
	</g>
</g>
<g id="toilet-female">
	<g>
		<g class="st2">
			<g>
				<polygon class="st7" points="449,262.4 458.6,282.8 384.3,296.2 375.2,275.6 				"/>
			</g>
			<g>
				<polygon class="st8" points="458.6,282.8 451.4,292.5 377,305.9 384.3,296.2 				"/>
			</g>
			<g>
				<polygon class="st8" points="384.3,296.2 377,305.9 368,285.4 375.2,275.6 				"/>
			</g>
		</g>
	</g>
</g>
<g id="shop-t1">
	<g>
		<g class="st2">
			<g>
				<path class="st5" d="M346.5,213.6l22.2,50.6l-76.6-2.6c-0.1-0.3-2.7-6.1-1-14C293.7,235.2,305.9,218.6,346.5,213.6z"/>
			</g>
			<g>
				<polygon class="st6" points="368.7,264.2 361.5,274 284.9,271.3 292.1,261.6 				"/>
			</g>
			<g class="st2">
				<g>
					<g>
						<g>
							<g>
								<g>
									<defs>
										<path id="SVGID_1_" d="M289.2,245.5l7.2-9.7c-3,4-4.6,8.1-5.4,11.8c-1.7,7.9,0.9,13.7,1,14l-7.2,9.7
											c-0.1-0.3-2.7-6.1-1-14C284.6,253.6,286.2,249.5,289.2,245.5z"/>
									</defs>
									<clipPath id="SVGID_2_">
										<use xlink:href="#SVGID_1_"  style="overflow:visible;"/>
									</clipPath>
									<g class="st9">
										<path class="st10" d="M292.1,261.6l-7.2,9.7c-0.1-0.3-2.7-6.1-1-14c0.8-3.7,2.4-7.7,5.4-11.8l7.2-9.7
											c-3,4-4.6,8.1-5.4,11.8C289.4,255.5,292,261.3,292.1,261.6"/>
									</g>
								</g>
							</g>
						</g>
					</g>
				</g>
			</g>
		</g>
	</g>
</g>
<g id="shop-t11">
	<g>
		<g class="st2">
			<g>
				<polygon class="st5" points="513.3,289.6 513.5,290.4 526.6,336.5 427.4,355.1 406.8,309 				"/>
			</g>
			<g>
				<polygon class="st6" points="526.6,336.5 519.3,346.3 420.2,364.9 427.4,355.1 				"/>
			</g>
			<g>
				<polygon class="st6" points="427.4,355.1 420.2,364.9 399.6,318.7 406.8,309 				"/>
			</g>
		</g>
	</g>
</g>
<g id="shop-t10">
	<g>
		<g class="st2">
			<g>
				<polygon class="st5" points="526.3,338.2 540.2,387 448.7,404.6 427.3,356.7 				"/>
			</g>
			<g>
				<polygon class="st6" points="540.2,387 533,396.7 441.5,414.3 448.7,404.6 				"/>
			</g>
			<g>
				<polygon class="st6" points="448.7,404.6 441.5,414.3 420,366.4 427.3,356.7 				"/>
			</g>
		</g>
	</g>
</g>
<g id="shop-t9">
	<g>
		<g class="st2">
			<g>
				<polygon class="st5" points="539.7,388.7 554.2,439.4 470.7,455.8 448.5,406.1 				"/>
			</g>
			<g>
				<polygon class="st6" points="554.2,439.4 547,449.1 463.5,465.5 470.7,455.8 				"/>
			</g>
			<g>
				<polygon class="st6" points="470.7,455.8 463.5,465.5 441.2,415.8 448.5,406.1 				"/>
			</g>
		</g>
	</g>
</g>
<g id="shop-t2">
	<g>
		<g class="st2">
			<g>
				<polygon class="st5" points="404.6,309.6 425.1,355.6 334.1,372.5 315.3,325.9 				"/>
			</g>
			<g>
				<polygon class="st6" points="425.1,355.6 417.9,365.3 326.9,382.3 334.1,372.5 				"/>
			</g>
			<g>
				<polygon class="st6" points="334.1,372.5 326.9,382.3 308,335.6 315.3,325.9 				"/>
			</g>
		</g>
	</g>
</g>
<g id="shop-t3">
	<g>
		<g class="st2">
			<g>
				<polygon class="st5" points="425,357.1 446.3,404.9 353.6,422.6 334,374 				"/>
			</g>
			<g>
				<polygon class="st6" points="446.3,404.9 439.1,414.7 346.4,432.4 353.6,422.6 				"/>
			</g>
			<g>
				<polygon class="st6" points="353.6,422.6 346.4,432.4 326.7,383.8 334,374 				"/>
			</g>
		</g>
	</g>
</g>
<g id="shop-t4">
	<g>
		<g class="st2">
			<g>
				<polygon class="st6" points="468.4,456.4 461.2,466.1 422.2,473.7 429.5,464 				"/>
			</g>
			<g>
				<polygon class="st6" points="429.5,464 422.2,473.7 419.6,467.7 426.9,458 				"/>
			</g>
			<g>
				<polygon class="st6" points="426.9,458 419.6,467.7 389.2,473.6 396.5,463.9 				"/>
			</g>
			<g>
				<polygon class="st5" points="446.2,406.5 468.4,456.4 429.5,464 426.9,458 396.5,463.9 399,470 373.9,474.9 353.4,424.2 				"/>
			</g>
			<g>
				<polygon class="st6" points="399,470 391.7,479.7 366.6,484.6 373.9,474.9 				"/>
			</g>
			<g>
				<polygon class="st6" points="373.9,474.9 366.6,484.6 346.1,433.9 353.4,424.2 				"/>
			</g>
		</g>
	</g>
</g>
<g id="shop-t6">
	<g>
		<g class="st2">
			<g>
				<polygon class="st6" points="592.4,627.9 585.1,637.6 511.3,653.2 518.6,643.5 				"/>
			</g>
			<g>
				<polygon class="st6" points="518.6,643.5 511.3,653.2 491.4,607.5 498.7,597.7 				"/>
			</g>
			<g>
				<polygon class="st5" points="557.8,553.7 570.6,581.1 571.3,582.7 592.4,627.9 518.6,643.5 498.7,597.7 428.7,612.3 
					416.6,582.7 				"/>
			</g>
			<g>
				<polygon class="st6" points="498.7,597.7 491.4,607.5 421.4,622 428.7,612.3 				"/>
			</g>
			<g>
				<polygon class="st6" points="428.7,612.3 421.4,622 409.4,592.4 416.6,582.7 				"/>
			</g>
		</g>
	</g>
</g>
<g id="shop-t1a">
	<g>
		<g class="st2">
			<g>
				<polygon class="st6" points="382,296.5 374.8,306.3 346.9,311.3 354.2,301.6 				"/>
			</g>
			<g>
				<polygon class="st6" points="354.2,301.6 346.9,311.3 345.6,308.1 352.8,298.4 				"/>
			</g>
			<g>
				<polygon class="st6" points="352.8,298.4 345.6,308.1 332.6,310.4 339.9,300.7 				"/>
			</g>
			<g>
				<polygon class="st5" points="291.8,262.8 368.4,265.4 382,296.5 354.2,301.6 352.8,298.4 339.9,300.7 341.2,303.9 310.6,309.4 
									"/>
			</g>
			<g>
				<polygon class="st6" points="341.2,303.9 334,313.6 303.4,319.2 310.6,309.4 				"/>
			</g>
			<g>
				<polygon class="st6" points="310.6,309.4 303.4,319.2 284.5,272.5 291.8,262.8 				"/>
			</g>
		</g>
	</g>
</g>
<g id="shop-k1">
	<g>
		<g class="st2">
			<g>
				<polygon class="st5" points="603.2,359.2 618.9,389.5 583.8,396.3 568.5,365.8 				"/>
			</g>
			<g>
				<polygon class="st6" points="618.9,389.5 611.7,399.3 576.6,406 583.8,396.3 				"/>
			</g>
			<g>
				<polygon class="st6" points="583.8,396.3 576.6,406 561.2,375.6 568.5,365.8 				"/>
			</g>
		</g>
	</g>
</g>
<g id="shop-k2">
	<g>
		<g class="st2">
			<g>
				<polygon class="st5" points="620.1,390.9 636.2,422 600.7,428.9 584.9,397.6 				"/>
			</g>
			<g>
				<polygon class="st6" points="636.2,422 629,431.7 593.4,438.7 600.7,428.9 				"/>
			</g>
			<g>
				<polygon class="st6" points="600.7,428.9 593.4,438.7 577.7,407.4 584.9,397.6 				"/>
			</g>
		</g>
	</g>
</g>
<g id="kiosk4">
	<g>
		<g class="st2">
			<g>
				<polygon class="st5" points="536.8,462.2 542,473.8 507.3,480.6 502.2,469 				"/>
			</g>
			<g>
				<polygon class="st6" points="542,473.8 534.8,483.5 500,490.4 507.3,480.6 				"/>
			</g>
			<g>
				<polygon class="st6" points="507.3,480.6 500,490.4 495,478.8 502.2,469 				"/>
			</g>
		</g>
	</g>
</g>
<g id="shop-k3">
	<g>
		<g class="st2">
			<g>
				<polygon class="st5" points="497.8,470.5 503,482.1 468.4,488.9 463.2,477.3 				"/>
			</g>
			<g>
				<polygon class="st6" points="503,482.1 495.9,491.8 461,498.7 468.4,488.9 				"/>
			</g>
			<g>
				<polygon class="st6" points="468.4,488.9 461,498.7 456,487.1 463.2,477.3 				"/>
			</g>
		</g>
	</g>
</g>
<g id="nopointer">
	<g>
		<circle class="st11" cx="408.4" cy="255.4" r="7"/>
		<g>
			<circle class="st0" cx="408.4" cy="252.1" r="1.4"/>
			<path class="st0" d="M411.3,254.4l-1.5-0.9l0,0l0,0l0,0l0,0c-0.2-0.1-0.4-0.1-0.6-0.1l0,0c-0.1,0-0.1,0.1-0.2,0.1
				c-0.2,0.1-0.4,0.1-0.6,0.1s-0.5-0.1-0.6-0.1s-0.1-0.1-0.2-0.1l0,0c-0.2-0.1-0.4,0-0.6,0.1l0,0l0,0l0,0l0,0l-1.5,0.9
				c-0.4,0.2-0.5,0.6-0.3,0.9c0.2,0.3,0.5,0.4,0.9,0.2l0.8-0.4c-0.2,0.6-0.1,1.1-0.1,1.1c0,0.1,0.7,0.3,1.6,0.3s1.6-0.1,1.6-0.3
				c0,0,0-0.4-0.1-1.1l0.8,0.4c0.4,0.2,0.7,0.1,0.9-0.2C411.8,254.9,411.7,254.6,411.3,254.4z"/>
			<path class="st0" d="M409.3,257.2c0.2-0.3,0.5-0.4,0.6-0.4s0.2-0.1,0.2-0.2v-0.4c-0.1,0.1-0.3,0.1-0.5,0.1
				c-0.3,0-0.7,0.1-1.2,0.1s-0.9,0-1.2-0.1c-0.2,0-0.3-0.1-0.5-0.1v0.4c0,0.1,0.1,0.2,0.2,0.2c0.2,0,0.4,0.1,0.6,0.4
				c0.3,0.5,0.1,0.8,0.1,0.8s0.2,0.1,0.8,0.1l0,0l0,0l0,0l0,0c0.5,0,0.7-0.1,0.7-0.1S409,257.6,409.3,257.2z"/>
			<path class="st0" d="M406.6,257L406.6,257L406.6,257z"/>
			<path class="st0" d="M406.6,257L406.6,257L406.6,257L406.6,257L406.6,257L406.6,257C406.5,257,406.5,257,406.6,257
				c-0.2,0.1-0.4,0.2-0.6,0.5c-0.7,0.7-0.5,1.3-0.4,1.5c0.2,0.4,0.4,0.8,0.4,0.8c0.1,0.2,0.4,0.3,0.6,0.3c0.1,0,0.3,0,0.4-0.1
				c0.3-0.2,0.4-0.6,0.1-1c0,0-0.1-0.2-0.3-0.5c0.1-0.1,0.3-0.2,0.4-0.3l0,0c0.4-0.2,0.4-0.6,0.3-0.9
				C407.3,257,406.9,256.8,406.6,257z"/>
			<path class="st0" d="M410.3,257L410.3,257L410.3,257L410.3,257z"/>
			<path class="st0" d="M410.3,257L410.3,257L410.3,257c-0.4-0.2-0.8-0.1-1,0.3c-0.1,0.3-0.1,0.7,0.3,0.9l0,0
				c0.1,0.1,0.3,0.2,0.4,0.3c-0.1,0.3-0.3,0.5-0.3,0.5c-0.2,0.3-0.2,0.8,0.1,1c0.1,0.1,0.2,0.1,0.4,0.1c0.2,0,0.4-0.1,0.6-0.3
				c0,0,0.2-0.3,0.4-0.8c0.1-0.2,0.3-0.9-0.4-1.5C410.7,257.2,410.5,257.1,410.3,257z"/>
		</g>
	</g>
	<g>
		<circle class="st11" cx="408.4" cy="210.6" r="7"/>
		<g>
			<circle class="st0" cx="407.9" cy="207" r="1.2"/>
			<path class="st0" d="M411.7,213.5l-1.2-1.7c-0.1-0.2-0.3-0.3-0.6-0.3h-1.4v-1v-1.1v-0.1c0-0.4-0.3-0.7-0.7-0.7s-0.7,0.3-0.7,0.7
				v2.9c0,0.4,0.3,0.7,0.7,0.7h1.7l1,1.4c0.1,0.2,0.4,0.3,0.6,0.3c0.1,0,0.3,0,0.4-0.1C411.9,214.2,411.9,213.8,411.7,213.5z"/>
			<path class="st0" d="M407.9,214.8c-1.3,0-2.4-1.1-2.4-2.4c0-0.9,0.5-1.7,1.2-2.1v-0.6c-1,0.4-1.8,1.5-1.8,2.6
				c0,1.6,1.3,2.9,2.9,2.9c0.9,0,1.7-0.4,2.2-1l-0.3-0.4C409.4,214.4,408.7,214.8,407.9,214.8z"/>
		</g>
	</g>
	<g>
		<circle class="st11" cx="417.1" cy="279.4" r="7"/>
		<g>
			<circle class="st0" cx="417.1" cy="275.7" r="1"/>
			<path class="st0" d="M420,278.9l-0.8-0.9l-0.4-0.4l-0.4-0.4c-0.1-0.1-0.2-0.2-0.3-0.2l0,0H418h-0.4h-0.1h-0.9h-0.1h-0.4H416l0,0
				c-0.1,0-0.2,0.1-0.3,0.2l-0.4,0.4l-0.4,0.4l-0.8,0.9c-0.2,0.2-0.1,0.5,0,0.6s0.4,0.1,0.6-0.1l0.4-0.4l0.4-0.4l0.4-0.4l-1,4.3h1.1
				v0.2v0.5v0.6c0,0.2,0.2,0.5,0.4,0.5s0.5-0.2,0.5-0.5v-1.1v-0.2h0.4v0.2v0.5v0.6c0,0.2,0.2,0.5,0.4,0.5s0.5-0.2,0.5-0.5v-1.1v-0.2
				h1.1l-1-4.3l0.3,0.4l0.4,0.4l0.4,0.4c0.2,0.2,0.4,0.2,0.6,0.1C420.1,279.3,420.2,279.1,420,278.9z"/>
		</g>
	</g>
	<g>
		<circle class="st11" cx="397.8" cy="232.9" r="7"/>
		<g>
			<circle class="st0" cx="397.8" cy="229.1" r="1"/>
			<path class="st0" d="M400.7,232.3l-0.8-0.9l-0.4-0.4l-0.4-0.4c-0.1-0.1-0.2-0.2-0.3-0.2l0,0h-0.1h-0.4h-0.1h-0.9h-0.1h-0.4h-0.1
				l0,0c-0.1,0-0.2,0.1-0.3,0.2L396,231l-0.4,0.4l-0.8,0.9c-0.2,0.2-0.1,0.5,0,0.6c0.2,0.2,0.4,0.1,0.6-0.1l0.4-0.4l0.4-0.4l0.4-0.4
				v0.1v2.5l0,0v1.8v0.5v0.6c0,0.3,0.2,0.5,0.4,0.5c0.3,0,0.5-0.2,0.5-0.5V236v-0.6v-0.9h0.5v1.5v0.5v0.6c0,0.3,0.2,0.5,0.4,0.5
				c0.3,0,0.5-0.2,0.5-0.5V236v-0.6V234l0,0v-2.3v-0.1l0.3,0.4l0.4,0.4l0.4,0.4c0.2,0.2,0.4,0.2,0.6,0.1
				C400.8,232.8,400.8,232.5,400.7,232.3z"/>
		</g>
	</g>
	<g>
		<path d="M280.4,518.5c0,0-0.1-0.1-0.1-0.2v-7.2c0-0.1,0-0.1,0.1-0.2c0,0,0.1-0.1,0.2-0.1h0.9c0.1,0,0.2,0.1,0.3,0.2l2.1,3.9
			l2.1-3.9c0.1-0.1,0.2-0.2,0.3-0.2h0.9c0.1,0,0.1,0,0.2,0.1c0,0,0.1,0.1,0.1,0.2v7.2c0,0.1,0,0.1-0.1,0.2s-0.1,0.1-0.2,0.1h-1
			c-0.1,0-0.1,0-0.2-0.1s-0.1-0.1-0.1-0.2v-4.7l-1.5,2.9c-0.1,0.2-0.2,0.2-0.4,0.2h-0.5c-0.1,0-0.3-0.1-0.4-0.2l-1.5-2.9v4.7
			c0,0.1,0,0.1-0.1,0.2c0,0-0.1,0.1-0.2,0.1h-1C280.5,518.6,280.4,518.6,280.4,518.5z"/>
		<path d="M288.6,518.5c0,0-0.1-0.1-0.1-0.2v-0.1l2.6-7.1c0.1-0.2,0.2-0.3,0.4-0.3h1.2c0.2,0,0.3,0.1,0.4,0.3l2.6,7.1v0.1
			c0,0.1,0,0.1-0.1,0.2c0,0-0.1,0.1-0.2,0.1h-1c-0.1,0-0.3-0.1-0.3-0.2l-0.5-1.3h-3.3l-0.5,1.3c-0.1,0.1-0.2,0.2-0.3,0.2
			L288.6,518.5C288.7,518.6,288.6,518.6,288.6,518.5z M291,515.8h2.5l-1.2-3.4L291,515.8z"/>
		<path d="M297,518.5c0,0-0.1-0.1-0.1-0.2v-7.2c0-0.1,0-0.1,0.1-0.2c0,0,0.1-0.1,0.2-0.1h1.1c0.1,0,0.1,0,0.2,0.1s0.1,0.1,0.1,0.2
			v7.2c0,0.1,0,0.1-0.1,0.2c0,0-0.1,0.1-0.2,0.1h-1.1C297.1,518.6,297,518.6,297,518.5z"/>
		<path d="M300.3,518.5c0,0-0.1-0.1-0.1-0.2v-7.2c0-0.1,0-0.1,0.1-0.2c0,0,0.1-0.1,0.2-0.1h0.9c0.1,0,0.2,0.1,0.3,0.2l3.1,4.9v-4.8
			c0-0.1,0-0.1,0.1-0.2c0,0,0.1-0.1,0.2-0.1h1c0.1,0,0.1,0,0.2,0.1c0,0,0.1,0.1,0.1,0.2v7.2c0,0.1,0,0.2-0.1,0.2s-0.1,0.1-0.2,0.1
			h-0.9c-0.1,0-0.3-0.1-0.3-0.2l-3.1-4.8v4.7c0,0.1,0,0.1-0.1,0.2c0,0-0.1,0.1-0.2,0.1h-1C300.4,518.6,300.3,518.6,300.3,518.5z"/>
		<path d="M310.5,518.5c0,0-0.1-0.1-0.1-0.2v-7.2c0-0.1,0-0.1,0.1-0.2c0,0,0.1-0.1,0.2-0.1h4.9c0.1,0,0.1,0,0.2,0.1
			c0,0,0.1,0.1,0.1,0.2v0.7c0,0.1,0,0.1-0.1,0.2c-0.1,0.1-0.1,0.1-0.2,0.1H312v1.9h3.4c0.1,0,0.1,0,0.2,0.1c0,0,0.1,0.1,0.1,0.2v0.7
			c0,0.1,0,0.2-0.1,0.2c0,0-0.1,0.1-0.2,0.1H312v2h3.7c0.1,0,0.1,0,0.2,0.1s0.1,0.1,0.1,0.2v0.8c0,0.1,0,0.1-0.1,0.2
			s-0.1,0.1-0.2,0.1h-4.9C310.7,518.6,310.6,518.6,310.5,518.5z"/>
		<path d="M317.4,518.5c0,0-0.1-0.1-0.1-0.2v-7.2c0-0.1,0-0.1,0.1-0.2c0,0,0.1-0.1,0.2-0.1h0.9c0.1,0,0.2,0.1,0.3,0.2l3.1,4.9v-4.8
			c0-0.1,0-0.1,0.1-0.2c0,0,0.1-0.1,0.2-0.1h1c0.1,0,0.1,0,0.2,0.1c0,0,0.1,0.1,0.1,0.2v7.2c0,0.1,0,0.2-0.1,0.2s-0.1,0.1-0.2,0.1
			h-0.9c-0.1,0-0.3-0.1-0.3-0.2l-3.1-4.8v4.7c0,0.1,0,0.1-0.1,0.2c0,0-0.1,0.1-0.2,0.1h-1C317.5,518.6,317.5,518.6,317.4,518.5z"/>
		<path d="M326.9,518.5c0,0-0.1-0.1-0.1-0.2v-6.1h-2c-0.1,0-0.1,0-0.2-0.1s-0.1-0.1-0.1-0.2v-0.8c0-0.1,0-0.1,0.1-0.2
			c0,0,0.1-0.1,0.2-0.1h5.6c0.1,0,0.1,0,0.2,0.1c0,0,0.1,0.1,0.1,0.2v0.8c0,0.1,0,0.2-0.1,0.2s-0.1,0.1-0.2,0.1h-2v6.1
			c0,0.1,0,0.1-0.1,0.2c0,0-0.1,0.1-0.2,0.1h-1C327,518.6,326.9,518.6,326.9,518.5z"/>
		<path d="M331.8,518.5c0,0-0.1-0.1-0.1-0.2v-7.2c0-0.1,0-0.1,0.1-0.2c0,0,0.1-0.1,0.2-0.1h2.9c0.9,0,1.6,0.2,2.1,0.6s0.8,1,0.8,1.8
			c0,0.5-0.1,1-0.4,1.3c-0.3,0.4-0.6,0.6-1.1,0.8l1.6,2.8v0.1c0,0.1,0,0.1-0.1,0.2c0,0-0.1,0.1-0.2,0.1h-1c-0.1,0-0.2,0-0.3-0.1
			c-0.1-0.1-0.1-0.1-0.2-0.2l-1.4-2.6h-1.5v2.6c0,0.1,0,0.1-0.1,0.2s-0.1,0.1-0.2,0.1L331.8,518.5
			C332,518.6,331.9,518.6,331.8,518.5z M334.8,514.4c0.4,0,0.8-0.1,1-0.3s0.3-0.5,0.3-0.8s-0.1-0.7-0.3-0.9s-0.5-0.3-1-0.3h-1.5v2.3
			H334.8L334.8,514.4z"/>
		<path d="M341,518.5c0,0-0.1-0.1-0.1-0.2v-2.5l-2.6-4.6c0-0.1,0-0.1,0-0.1c0-0.1,0-0.1,0.1-0.2s0.1-0.1,0.2-0.1h1
			c0.1,0,0.2,0.1,0.3,0.2l1.9,3.2l1.9-3.2l0.1-0.1c0,0,0.1-0.1,0.2-0.1h1c0.1,0,0.1,0,0.2,0.1s0.1,0.1,0.1,0.2v0.1l-2.6,4.6v2.5
			c0,0.1,0,0.1-0.1,0.2s-0.1,0.1-0.2,0.1h-1C341.1,518.6,341,518.6,341,518.5z"/>
	</g>
	<g>
		<path d="M89.5,481.2c-0.6-0.5-0.8-1.2-0.9-2.2c0-0.2,0-0.5,0-1s0-0.8,0-1c0-0.9,0.3-1.7,0.9-2.2s1.3-0.8,2.3-0.8
			c0.7,0,1.2,0.1,1.7,0.3c0.5,0.2,0.9,0.5,1.1,0.9s0.4,0.8,0.4,1.3l0,0c0,0.1,0,0.1-0.1,0.1s-0.1,0.1-0.2,0.1h-1.1
			c-0.1,0-0.2,0-0.2-0.1c0,0-0.1-0.1-0.1-0.2c-0.1-0.5-0.3-0.8-0.6-1c-0.3-0.2-0.6-0.3-1.1-0.3c-1.1,0-1.6,0.6-1.6,1.8
			c0,0.2,0,0.5,0,0.9s0,0.7,0,0.9c0,1.2,0.6,1.8,1.6,1.8c0.4,0,0.8-0.1,1.1-0.3s0.5-0.5,0.6-1c0-0.1,0.1-0.2,0.1-0.2
			s0.1-0.1,0.2-0.1h1.1c0.1,0,0.1,0,0.2,0.1s0.1,0.1,0.1,0.2c0,0.5-0.2,0.9-0.4,1.3c-0.3,0.4-0.6,0.7-1.1,0.9
			c-0.5,0.2-1.1,0.3-1.7,0.3C90.9,482,90.1,481.7,89.5,481.2z"/>
		<path d="M95.7,481.8c0,0-0.1-0.1-0.1-0.2v-0.1l2.6-7.1c0.1-0.2,0.2-0.3,0.4-0.3h1.2c0.2,0,0.3,0.1,0.4,0.3l2.6,7.1v0.1
			c0,0.1,0,0.1-0.1,0.2c-0.1,0-0.1,0.1-0.2,0.1h-1c-0.2,0-0.3-0.1-0.3-0.2l-0.5-1.3h-3.3l-0.5,1.3c-0.1,0.1-0.2,0.2-0.3,0.2h-1
			C95.8,481.9,95.8,481.8,95.7,481.8z M98.1,479h2.5l-1.2-3.4L98.1,479z"/>
		<path d="M104.1,481.8c-0.1,0-0.1-0.1-0.1-0.2v-7.2c0-0.1,0-0.1,0.1-0.2s0.1-0.1,0.2-0.1h2.8c0.9,0,1.6,0.2,2.1,0.6s0.8,1,0.8,1.8
			c0,0.5-0.1,1-0.4,1.4s-0.6,0.6-1.1,0.8l1.6,2.8v0.1c0,0.1,0,0.1-0.1,0.2c-0.1,0-0.1,0.1-0.2,0.1h-1c-0.1,0-0.2,0-0.3-0.1
			c-0.1-0.1-0.1-0.1-0.2-0.2L107,479h-1.5v2.6c0,0.1,0,0.1-0.1,0.2s-0.1,0.1-0.2,0.1h-1C104.2,481.9,104.1,481.8,104.1,481.8z
			 M107.1,477.7c0.4,0,0.8-0.1,1-0.3s0.3-0.5,0.3-0.9s-0.1-0.7-0.3-0.9s-0.6-0.3-1-0.3h-1.5v2.3L107.1,477.7L107.1,477.7z"/>
		<path d="M111.5,481.8c-0.1,0-0.1-0.1-0.1-0.2v-7.2c0-0.1,0-0.1,0.1-0.2s0.1-0.1,0.2-0.1h2.9c0.9,0,1.6,0.2,2.1,0.6s0.8,1,0.8,1.8
			s-0.2,1.4-0.8,1.8s-1.2,0.6-2.1,0.6H113v2.6c0,0.1,0,0.1-0.1,0.2s-0.1,0.1-0.2,0.1h-1.1C111.6,481.9,111.5,481.8,111.5,481.8z
			 M114.6,477.8c0.4,0,0.8-0.1,1-0.3s0.3-0.5,0.3-0.9s-0.1-0.7-0.3-0.9c-0.2-0.2-0.5-0.3-1-0.3H113v2.4L114.6,477.8L114.6,477.8z"/>
		<path d="M117.5,481.8c0,0-0.1-0.1-0.1-0.2v-0.1l2.6-7.1c0.1-0.2,0.2-0.3,0.4-0.3h1.2c0.2,0,0.3,0.1,0.4,0.3l2.6,7.1v0.1
			c0,0.1,0,0.1-0.1,0.2c-0.1,0-0.1,0.1-0.2,0.1h-1c-0.2,0-0.3-0.1-0.3-0.2l-0.5-1.3h-3.3l-0.5,1.3c-0.1,0.1-0.2,0.2-0.3,0.2h-1
			C117.6,481.9,117.6,481.8,117.5,481.8z M119.9,479h2.5l-1.2-3.4L119.9,479z"/>
		<path d="M125.9,481.8c-0.1,0-0.1-0.1-0.1-0.2v-7.2c0-0.1,0-0.1,0.1-0.2s0.1-0.1,0.2-0.1h2.9c0.9,0,1.6,0.2,2.1,0.6s0.8,1,0.8,1.8
			c0,0.5-0.1,1-0.4,1.4c-0.3,0.4-0.6,0.6-1.1,0.8l1.6,2.8v0.1c0,0.1,0,0.1-0.1,0.2c-0.1,0-0.1,0.1-0.2,0.1h-1c-0.1,0-0.2,0-0.3-0.1
			s-0.1-0.1-0.2-0.2l-1.4-2.6h-1.5v2.6c0,0.1,0,0.1-0.1,0.2s-0.1,0.1-0.2,0.1h-1C126,481.9,125.9,481.8,125.9,481.8z M128.9,477.7
			c0.4,0,0.8-0.1,1-0.3s0.3-0.5,0.3-0.9s-0.1-0.7-0.3-0.9s-0.6-0.3-1-0.3h-1.5v2.3L128.9,477.7L128.9,477.7z"/>
		<path d="M133.3,481.8c-0.1,0-0.1-0.1-0.1-0.2v-7.2c0-0.1,0-0.1,0.1-0.2s0.1-0.1,0.2-0.1h1c0.1,0,0.1,0,0.2,0.1s0.1,0.1,0.1,0.2
			v2.6l2.4-2.6c0.1-0.1,0.2-0.2,0.4-0.2h1.1c0.1,0,0.1,0,0.2,0.1c0.1,0,0.1,0.1,0.1,0.2c0,0,0,0.1-0.1,0.1l-3,3.3l3.2,3.6v0.1
			c0,0.1,0,0.1-0.1,0.2s-0.1,0.1-0.1,0.1h-1.1c-0.1,0-0.3,0-0.3-0.1s-0.1-0.1-0.1-0.1l-2.6-2.9v2.8c0,0.1,0,0.1-0.1,0.2
			s-0.1,0.1-0.2,0.1h-1C133.4,481.9,133.4,481.8,133.3,481.8z"/>
	</g>
	<g>
		<path d="M219.3,289.4c-0.1,0-0.1-0.1-0.1-0.2v-6.1h-2c-0.1,0-0.1,0-0.2-0.1s-0.1-0.1-0.1-0.2V282c0-0.1,0-0.1,0.1-0.2
			c0.1,0,0.1-0.1,0.2-0.1h5.6c0.1,0,0.1,0,0.2,0.1s0.1,0.1,0.1,0.2v0.8c0,0.1,0,0.1-0.1,0.2c-0.1,0-0.1,0.1-0.2,0.1h-2v6.1
			c0,0.1,0,0.1-0.1,0.2s-0.1,0.1-0.2,0.1h-1C219.4,289.5,219.4,289.5,219.3,289.4z"/>
		<path d="M224.3,289.4c-0.1,0-0.1-0.1-0.1-0.2V282c0-0.1,0-0.1,0.1-0.2c0.1,0,0.1-0.1,0.2-0.1h4.9c0.1,0,0.1,0,0.2,0.1
			s0.1,0.1,0.1,0.2v0.7c0,0.1,0,0.1-0.1,0.2s-0.1,0.1-0.2,0.1h-3.6v1.9h3.4c0.1,0,0.1,0,0.2,0.1s0.1,0.1,0.1,0.2v0.7
			c0,0.1,0,0.1-0.1,0.2c-0.1,0-0.1,0.1-0.2,0.1h-3.4v2h3.7c0.1,0,0.1,0,0.2,0.1s0.1,0.1,0.1,0.2v0.8c0,0.1,0,0.1-0.1,0.2
			s-0.1,0.1-0.2,0.1h-4.9C224.4,289.5,224.3,289.5,224.3,289.4z"/>
		<path d="M231.1,289.4c-0.1,0-0.1-0.1-0.1-0.2V282c0-0.1,0-0.1,0.1-0.2c0.1,0,0.1-0.1,0.2-0.1h2.9c0.9,0,1.6,0.2,2.1,0.6
			s0.8,1,0.8,1.8c0,0.5-0.1,1-0.4,1.4c-0.3,0.4-0.6,0.6-1.1,0.8l1.6,2.8v0.1c0,0.1,0,0.1-0.1,0.2c-0.1,0-0.1,0.1-0.2,0.1h-1
			c-0.1,0-0.2,0-0.3-0.1s-0.1-0.1-0.2-0.2l-1.4-2.6h-1.5v2.6c0,0.1,0,0.1-0.1,0.2s-0.1,0.1-0.2,0.1h-1
			C231.2,289.5,231.2,289.5,231.1,289.4z M234.1,285.3c0.4,0,0.8-0.1,1-0.3s0.3-0.5,0.3-0.9s-0.1-0.7-0.3-0.9
			c-0.2-0.2-0.6-0.3-1-0.3h-1.5v2.3L234.1,285.3L234.1,285.3z"/>
		<path d="M238.5,289.4c-0.1,0-0.1-0.1-0.1-0.2V282c0-0.1,0-0.1,0.1-0.2c0.1,0,0.1-0.1,0.2-0.1h2.9c0.9,0,1.6,0.2,2.1,0.6
			s0.8,1,0.8,1.8c0,0.5-0.1,1-0.4,1.4c-0.3,0.4-0.6,0.6-1.1,0.8l1.6,2.8v0.1c0,0.1,0,0.1-0.1,0.2c-0.1,0-0.1,0.1-0.2,0.1h-1
			c-0.1,0-0.2,0-0.3-0.1s-0.1-0.1-0.2-0.2l-1.4-2.6H240v2.6c0,0.1,0,0.1-0.1,0.2s-0.1,0.1-0.2,0.1h-1
			C238.6,289.5,238.6,289.5,238.5,289.4z M241.5,285.3c0.4,0,0.8-0.1,1-0.3s0.3-0.5,0.3-0.9s-0.1-0.7-0.3-0.9
			c-0.2-0.2-0.6-0.3-1-0.3H240v2.3L241.5,285.3L241.5,285.3z"/>
		<path d="M245.2,289.4c0,0-0.1-0.1-0.1-0.2v-0.1l2.6-7.1c0.1-0.2,0.2-0.3,0.4-0.3h1.2c0.2,0,0.3,0.1,0.4,0.3l2.6,7.1v0.1
			c0,0.1,0,0.1-0.1,0.2c-0.1,0-0.1,0.1-0.2,0.1h-1c-0.1,0-0.3-0.1-0.3-0.2l-0.5-1.3h-3.3l-0.5,1.3c-0.1,0.1-0.2,0.2-0.3,0.2h-1
			C245.3,289.5,245.3,289.5,245.2,289.4z M247.6,286.7h2.5l-1.2-3.4L247.6,286.7z"/>
		<path d="M254,288.8c-0.6-0.5-0.9-1.2-0.9-2.2c0-0.2,0-0.5,0-1s0-0.8,0-1c0-0.9,0.3-1.7,0.9-2.2s1.3-0.8,2.3-0.8
			c0.6,0,1.2,0.1,1.7,0.3c0.5,0.2,0.9,0.5,1.1,0.9c0.3,0.4,0.4,0.8,0.4,1.3l0,0c0,0.1,0,0.1-0.1,0.1c0,0-0.1,0.1-0.2,0.1h-1.1
			c-0.1,0-0.1,0-0.2-0.1c0,0-0.1-0.1-0.1-0.2c-0.1-0.5-0.3-0.8-0.6-1c-0.3-0.2-0.6-0.3-1.1-0.3c-1.1,0-1.6,0.6-1.6,1.8
			c0,0.2,0,0.5,0,0.9s0,0.7,0,0.9c0,1.2,0.6,1.8,1.6,1.8c0.4,0,0.8-0.1,1.1-0.3c0.3-0.2,0.5-0.5,0.6-1c0-0.1,0.1-0.2,0.1-0.2
			s0.1-0.1,0.2-0.1h1.1c0.1,0,0.1,0,0.2,0.1s0.1,0.1,0.1,0.2c0,0.5-0.2,0.9-0.4,1.3c-0.3,0.4-0.6,0.7-1.1,0.9
			c-0.5,0.2-1,0.3-1.7,0.3C255.3,289.6,254.5,289.3,254,288.8z"/>
		<path d="M261,289.4c0,0-0.1-0.1-0.1-0.2V282c0-0.1,0-0.1,0.1-0.2c0,0,0.1-0.1,0.2-0.1h4.9c0.1,0,0.1,0,0.2,0.1
			c0,0,0.1,0.1,0.1,0.2v0.7c0,0.1,0,0.1-0.1,0.2s-0.1,0.1-0.2,0.1h-3.6v1.9h3.4c0.1,0,0.1,0,0.2,0.1c0,0,0.1,0.1,0.1,0.2v0.7
			c0,0.1,0,0.1-0.1,0.2c0,0-0.1,0.1-0.2,0.1h-3.4v2h3.7c0.1,0,0.1,0,0.2,0.1s0.1,0.1,0.1,0.2v0.8c0,0.1,0,0.1-0.1,0.2
			s-0.1,0.1-0.2,0.1h-4.9C261.1,289.5,261,289.5,261,289.4z"/>
		<path d="M271.2,289.3c-0.4-0.2-0.7-0.4-0.9-0.8c-0.2-0.3-0.3-0.7-0.3-1.2s0.1-0.9,0.4-1.2c0.3-0.3,0.6-0.6,1.1-0.9
			c-0.3-0.3-0.5-0.6-0.7-0.9s-0.2-0.5-0.2-0.8s0.1-0.6,0.3-0.9c0.2-0.3,0.4-0.5,0.8-0.7c0.3-0.2,0.7-0.3,1.2-0.3
			c0.4,0,0.8,0.1,1.1,0.2s0.6,0.4,0.8,0.7c0.2,0.3,0.3,0.6,0.3,0.9c0,0.4-0.1,0.8-0.4,1.1s-0.7,0.6-1.2,0.9l1.6,1.5
			c0.3-0.5,0.5-0.9,0.6-1.5c0-0.1,0-0.1,0.1-0.1c0,0,0.1,0,0.2,0h0.8c0.1,0,0.1,0,0.2,0.1s0.1,0.1,0.1,0.1c0,0.3-0.1,0.6-0.3,1.1
			s-0.4,0.8-0.7,1.2l1.2,1.2c0,0,0.1,0.1,0.1,0.2s0,0.1-0.1,0.1h-0.1h-1.1c-0.1,0-0.2,0-0.3-0.1l-0.6-0.6c-0.6,0.5-1.4,0.8-2.2,0.8
			C272.1,289.6,271.6,289.5,271.2,289.3z M274,287.9l-1.8-1.7c-0.6,0.3-0.9,0.7-0.9,1.2c0,0.3,0.1,0.6,0.4,0.8s0.6,0.3,0.9,0.3
			C273.2,288.4,273.6,288.2,274,287.9z M273.4,284.2c0.2-0.2,0.3-0.4,0.3-0.6s-0.1-0.4-0.2-0.6s-0.4-0.2-0.6-0.2s-0.5,0.1-0.6,0.2
			s-0.3,0.3-0.3,0.6c0,0.2,0,0.3,0.1,0.5s0.3,0.4,0.5,0.6C273,284.5,273.2,284.3,273.4,284.2z"/>
		<path d="M218.5,302.5c-0.5-0.2-0.8-0.5-1.1-0.8s-0.4-0.7-0.4-1.1c0-0.1,0-0.1,0.1-0.2s0.1-0.1,0.2-0.1h1c0.1,0,0.1,0,0.2,0
			c0.1,0,0.1,0.1,0.1,0.1c0.1,0.2,0.2,0.5,0.5,0.6s0.6,0.2,1.1,0.2s0.9-0.1,1.2-0.3s0.4-0.4,0.4-0.7c0-0.2-0.1-0.4-0.2-0.5
			s-0.3-0.2-0.6-0.4s-0.7-0.2-1.2-0.4c-0.9-0.2-1.5-0.5-1.9-0.8s-0.6-0.8-0.6-1.5c0-0.4,0.1-0.8,0.4-1.1c0.2-0.3,0.6-0.6,1-0.8
			s0.9-0.3,1.5-0.3s1.1,0.1,1.6,0.3c0.4,0.2,0.8,0.5,1,0.8s0.4,0.6,0.4,1c0,0.1,0,0.1-0.1,0.2c0,0-0.1,0.1-0.2,0.1h-1
			c-0.2,0-0.3-0.1-0.3-0.2c0-0.2-0.2-0.4-0.4-0.6s-0.6-0.2-0.9-0.2c-0.4,0-0.7,0.1-0.9,0.2s-0.4,0.4-0.4,0.7c0,0.2,0.1,0.4,0.2,0.5
			s0.3,0.2,0.6,0.4s0.6,0.2,1.1,0.3c0.6,0.1,1.2,0.3,1.6,0.5c0.4,0.2,0.7,0.4,0.9,0.7s0.3,0.6,0.3,1.1s-0.1,0.9-0.4,1.2
			c-0.3,0.4-0.6,0.6-1.1,0.8s-1,0.3-1.6,0.3C219.6,302.8,219,302.7,218.5,302.5z"/>
		<path d="M224.7,302.6c-0.1,0-0.1-0.1-0.1-0.2v-7.2c0-0.1,0-0.1,0.1-0.2c0.1,0,0.1-0.1,0.2-0.1h4.9c0.1,0,0.1,0,0.2,0.1
			s0.1,0.1,0.1,0.2v0.7c0,0.1,0,0.1-0.1,0.2s-0.1,0.1-0.2,0.1h-3.6v1.9h3.4c0.1,0,0.1,0,0.2,0.1s0.1,0.1,0.1,0.2v0.7
			c0,0.1,0,0.1-0.1,0.2c-0.1,0-0.1,0.1-0.2,0.1h-3.4v2h3.7c0.1,0,0.1,0,0.2,0.1s0.1,0.1,0.1,0.2v0.8c0,0.1,0,0.1-0.1,0.2
			s-0.1,0.1-0.2,0.1H225C224.8,302.7,224.7,302.7,224.7,302.6z"/>
		<path d="M230.8,302.6c0,0-0.1-0.1-0.1-0.2v-0.1l2.6-7.1c0.1-0.2,0.2-0.3,0.4-0.3h1.2c0.2,0,0.3,0.1,0.4,0.3l2.6,7.1v0.1
			c0,0.1,0,0.1-0.1,0.2c-0.1,0-0.1,0.1-0.2,0.1h-1c-0.1,0-0.3-0.1-0.3-0.2l-0.5-1.3h-3.3l-0.5,1.3c-0.1,0.1-0.2,0.2-0.3,0.2h-1
			C230.9,302.7,230.9,302.7,230.8,302.6z M233.2,299.9h2.5l-1.2-3.4L233.2,299.9z"/>
		<path d="M240.1,302.6c-0.1,0-0.1-0.1-0.1-0.2v-6.1h-2c-0.1,0-0.1,0-0.2-0.1s-0.1-0.1-0.1-0.2v-0.8c0-0.1,0-0.1,0.1-0.2
			c0.1,0,0.1-0.1,0.2-0.1h5.6c0.1,0,0.1,0,0.2,0.1s0.1,0.1,0.1,0.2v0.8c0,0.1,0,0.1-0.1,0.2c-0.1,0-0.1,0.1-0.2,0.1h-2v6.1
			c0,0.1,0,0.1-0.1,0.2s-0.1,0.1-0.2,0.1h-1C240.2,302.7,240.1,302.7,240.1,302.6z"/>
		<path d="M245,302.6c-0.1,0-0.1-0.1-0.1-0.2v-7.2c0-0.1,0-0.1,0.1-0.2c0.1,0,0.1-0.1,0.2-0.1h1.1c0.1,0,0.1,0,0.2,0.1
			c0.1,0,0.1,0.1,0.1,0.2v7.2c0,0.1,0,0.1-0.1,0.2s-0.1,0.1-0.2,0.1h-1.1C245.1,302.7,245.1,302.7,245,302.6z"/>
		<path d="M248.3,302.6c-0.1,0-0.1-0.1-0.1-0.2v-7.2c0-0.1,0-0.1,0.1-0.2c0.1,0,0.1-0.1,0.2-0.1h0.9c0.1,0,0.2,0.1,0.3,0.2l3.1,4.9
			v-4.8c0-0.1,0-0.1,0.1-0.2c0.1,0,0.1-0.1,0.2-0.1h0.9c0.1,0,0.1,0,0.2,0.1s0.1,0.1,0.1,0.2v7.1c0,0.1,0,0.1-0.1,0.2
			c-0.1,0-0.1,0.1-0.2,0.1h-0.9c-0.1,0-0.3-0.1-0.3-0.2l-3.1-4.8v4.7c0,0.1,0,0.1-0.1,0.2s-0.1,0.1-0.2,0.1h-0.9
			C248.4,302.7,248.4,302.7,248.3,302.6z"/>
		<path d="M256.7,302c-0.6-0.5-0.9-1.2-0.9-2.2c0-0.2,0-0.5,0-1s0-0.8,0-1c0-0.9,0.3-1.6,0.9-2.1s1.4-0.8,2.4-0.8
			c0.7,0,1.3,0.1,1.7,0.4c0.5,0.2,0.9,0.5,1.1,0.9s0.4,0.7,0.4,1c0,0.1,0,0.1-0.1,0.2s-0.1,0.1-0.2,0.1h-1.1c-0.1,0-0.1,0-0.2,0
			s-0.1-0.1-0.1-0.1c-0.1-0.3-0.3-0.5-0.5-0.7s-0.6-0.3-1-0.3c-0.5,0-0.9,0.1-1.2,0.4s-0.4,0.7-0.5,1.3c0,0.2,0,0.5,0,1s0,0.8,0,1
			c0,0.6,0.2,1,0.5,1.3s0.7,0.4,1.2,0.4s0.9-0.1,1.2-0.4s0.5-0.7,0.5-1.2v-0.3h-1.3c-0.1,0-0.1,0-0.2-0.1s-0.1-0.1-0.1-0.2V299
			c0-0.1,0-0.1,0.1-0.2s0.1-0.1,0.2-0.1h2.6c0.1,0,0.1,0,0.2,0.1c0,0,0.1,0.1,0.1,0.2v1.2c0,0.6-0.1,1.1-0.4,1.6s-0.7,0.8-1.2,1
			s-1.1,0.4-1.8,0.4C258,302.8,257.2,302.5,256.7,302z"/>
		<path d="M265.3,302.6c0,0-0.1-0.1-0.1-0.2v-0.1l2.6-7.1c0.1-0.2,0.2-0.3,0.4-0.3h1.2c0.2,0,0.3,0.1,0.4,0.3l2.6,7.1v0.1
			c0,0.1,0,0.1-0.1,0.2c0,0-0.1,0.1-0.2,0.1h-1c-0.1,0-0.3-0.1-0.3-0.2l-0.5-1.3H267l-0.5,1.3c-0.1,0.1-0.2,0.2-0.3,0.2h-1
			C265.4,302.7,265.4,302.7,265.3,302.6z M267.7,299.9h2.5l-1.2-3.4L267.7,299.9z"/>
		<path d="M273.7,302.6c0,0-0.1-0.1-0.1-0.2v-7.2c0-0.1,0-0.1,0.1-0.2c0,0,0.1-0.1,0.2-0.1h2.9c0.9,0,1.6,0.2,2.1,0.6s0.8,1,0.8,1.8
			c0,0.5-0.1,1-0.4,1.4s-0.6,0.6-1.1,0.8l1.6,2.8v0.1c0,0.1,0,0.1-0.1,0.2c0,0-0.1,0.1-0.2,0.1h-1c-0.1,0-0.2,0-0.3-0.1
			c-0.1-0.1-0.1-0.1-0.2-0.2l-1.4-2.6h-1.5v2.6c0,0.1,0,0.1-0.1,0.2s-0.1,0.1-0.2,0.1L273.7,302.6
			C273.8,302.7,273.7,302.7,273.7,302.6z M276.7,298.5c0.4,0,0.8-0.1,1-0.3s0.3-0.5,0.3-0.9s-0.1-0.7-0.3-0.9
			c-0.2-0.2-0.5-0.3-1-0.3h-1.5v2.3L276.7,298.5L276.7,298.5z"/>
		<path d="M281.1,302.6c0,0-0.1-0.1-0.1-0.2v-7.2c0-0.1,0-0.1,0.1-0.2c0,0,0.1-0.1,0.2-0.1h4.9c0.1,0,0.1,0,0.2,0.1
			c0,0,0.1,0.1,0.1,0.2v0.7c0,0.1,0,0.1-0.1,0.2s-0.1,0.1-0.2,0.1h-3.6v1.9h3.4c0.1,0,0.1,0,0.2,0.1c0,0,0.1,0.1,0.1,0.2v0.7
			c0,0.1,0,0.1-0.1,0.2c0,0-0.1,0.1-0.2,0.1h-3.4v2h3.7c0.1,0,0.1,0,0.2,0.1s0.1,0.1,0.1,0.2v0.8c0,0.1,0,0.1-0.1,0.2
			s-0.1,0.1-0.2,0.1h-4.9C281.2,302.7,281.1,302.7,281.1,302.6z"/>
		<path d="M287.2,302.6c0,0-0.1-0.1-0.1-0.2v-0.1l2.6-7.1c0.1-0.2,0.2-0.3,0.4-0.3h1.2c0.2,0,0.3,0.1,0.4,0.3l2.6,7.1v0.1
			c0,0.1,0,0.1-0.1,0.2c0,0-0.1,0.1-0.2,0.1h-1c-0.1,0-0.3-0.1-0.3-0.2l-0.5-1.3h-3.3l-0.5,1.3c-0.1,0.1-0.2,0.2-0.3,0.2h-1
			C287.3,302.7,287.3,302.7,287.2,302.6z M289.6,299.9h2.5l-1.2-3.4L289.6,299.9z"/>
	</g>
	<g>
		<path d="M539.8,340.2c-0.5-0.5-0.8-1.2-0.9-2.2c0-0.2,0-0.5,0-1s0-0.8,0-1c0-0.9,0.3-1.7,0.9-2.2s1.3-0.8,2.3-0.8
			c0.7,0,1.2,0.1,1.7,0.3c0.5,0.2,0.9,0.5,1.1,0.9s0.4,0.8,0.4,1.3l0,0c0,0.1,0,0.1-0.1,0.1s-0.1,0.1-0.2,0.1h-1.1
			c-0.1,0-0.2,0-0.2-0.1c0,0-0.1-0.1-0.1-0.2c-0.1-0.5-0.3-0.8-0.6-1s-0.6-0.3-1.1-0.3c-1,0-1.6,0.6-1.6,1.8c0,0.2,0,0.5,0,0.9
			s0,0.7,0,0.9c0,1.2,0.6,1.8,1.6,1.8c0.4,0,0.8-0.1,1.1-0.3s0.5-0.5,0.6-1c0-0.1,0.1-0.2,0.1-0.2s0.1-0.1,0.2-0.1h1.1
			c0.1,0,0.1,0,0.2,0.1s0.1,0.1,0.1,0.2c0,0.5-0.2,0.9-0.4,1.3c-0.3,0.4-0.6,0.7-1.1,0.9c-0.5,0.2-1,0.3-1.7,0.3
			C541.1,340.9,540.3,340.7,539.8,340.2z"/>
		<path d="M547.3,340.2c-0.6-0.5-0.8-1.3-0.9-2.2c0-0.2,0-0.5,0-0.9s0-0.7,0-1c0-1,0.3-1.7,0.9-2.2s1.3-0.8,2.3-0.8s1.7,0.3,2.3,0.8
			s0.9,1.3,0.9,2.2c0,0.4,0,0.7,0,1c0,0.2,0,0.5,0,0.9c0,1-0.3,1.8-0.9,2.2c-0.6,0.5-1.3,0.8-2.3,0.8
			C548.6,340.9,547.8,340.7,547.3,340.2z M550.8,339.2c0.3-0.3,0.4-0.7,0.5-1.4c0-0.4,0-0.7,0-0.9c0-0.2,0-0.5,0-0.9
			c0-0.6-0.2-1-0.5-1.4s-0.7-0.5-1.2-0.5s-0.9,0.1-1.2,0.5c-0.3,0.3-0.5,0.8-0.5,1.4c0,0.2,0,0.5,0,0.9s0,0.7,0,0.9
			c0,0.6,0.2,1,0.5,1.4c0.3,0.3,0.7,0.5,1.2,0.5C550.1,339.6,550.5,339.5,550.8,339.2z"/>
		<path d="M555.1,340.2c-0.5-0.5-0.8-1.3-0.8-2.3v-4.5c0-0.1,0-0.1,0.1-0.2s0.1-0.1,0.2-0.1h1c0.1,0,0.2,0,0.2,0.1s0.1,0.1,0.1,0.2
			v4.5c0,0.6,0.1,1,0.4,1.3c0.3,0.3,0.7,0.4,1.2,0.4s0.9-0.1,1.2-0.4s0.4-0.7,0.4-1.3v-4.5c0-0.1,0-0.1,0.1-0.2s0.1-0.1,0.2-0.1h1
			c0.1,0,0.2,0,0.2,0.1c0,0,0.1,0.1,0.1,0.2v4.5c0,1-0.3,1.8-0.8,2.3s-1.3,0.8-2.3,0.8C556.4,340.9,555.6,340.7,555.1,340.2z"/>
		<path d="M562.2,340.7c0,0-0.1-0.1-0.1-0.2v-7.2c0-0.1,0-0.1,0.1-0.2s0.1-0.1,0.2-0.1h2.8c0.9,0,1.6,0.2,2.1,0.6s0.8,1,0.8,1.8
			c0,0.5-0.1,1-0.4,1.4c-0.3,0.4-0.6,0.6-1.1,0.8l1.6,2.8v0.1c0,0.1,0,0.1-0.1,0.2c0,0-0.1,0.1-0.2,0.1h-1c-0.1,0-0.2,0-0.3-0.1
			s-0.1-0.1-0.2-0.2l-1.4-2.6h-1.5v2.6c0,0.1,0,0.1-0.1,0.2s-0.1,0.1-0.2,0.1L562.2,340.7C562.4,340.8,562.3,340.8,562.2,340.7z
			 M565.2,336.7c0.4,0,0.8-0.1,1-0.3s0.3-0.5,0.3-0.9s-0.1-0.7-0.3-0.9c-0.2-0.2-0.5-0.3-1-0.3h-1.5v2.3L565.2,336.7L565.2,336.7z"
			/>
		<path d="M571.3,340.7c0,0-0.1-0.1-0.1-0.2v-6.1h-2c-0.1,0-0.1,0-0.2-0.1s-0.1-0.1-0.1-0.2v-0.8c0-0.1,0-0.1,0.1-0.2
			s0.1-0.1,0.2-0.1h5.6c0.1,0,0.2,0,0.2,0.1s0.1,0.1,0.1,0.2v0.8c0,0.1,0,0.1-0.1,0.2s-0.1,0.1-0.2,0.1h-2v6.1c0,0.1,0,0.1-0.1,0.2
			s-0.1,0.1-0.2,0.1h-1C571.4,340.8,571.3,340.8,571.3,340.7z"/>
		<path d="M577.5,340.8c0,0-0.1-0.1-0.1-0.2v-0.1l2.6-7.1c0.1-0.2,0.2-0.3,0.4-0.3h1.2c0.2,0,0.3,0.1,0.4,0.3l2.6,7.1v0.1
			c0,0.1,0,0.1-0.1,0.2c0,0-0.1,0.1-0.2,0.1h-1c-0.2,0-0.3-0.1-0.3-0.2l-0.5-1.3h-3.3l-0.5,1.3c-0.1,0.1-0.2,0.2-0.3,0.2h-1
			C577.6,340.8,577.5,340.8,577.5,340.8z M579.8,338h2.5l-1.2-3.4L579.8,338z"/>
		<path d="M585.8,340.7c0,0-0.1-0.1-0.1-0.2v-7.2c0-0.1,0-0.1,0.1-0.2s0.1-0.1,0.2-0.1h2.8c0.9,0,1.6,0.2,2.1,0.6s0.8,1,0.8,1.8
			c0,0.5-0.1,1-0.4,1.4c-0.3,0.4-0.6,0.6-1.1,0.8l1.6,2.8v0.1c0,0.1,0,0.1-0.1,0.2c0,0-0.1,0.1-0.2,0.1h-1c-0.1,0-0.2,0-0.3-0.1
			s-0.1-0.1-0.2-0.2l-1.4-2.6h-1.5v2.6c0,0.1,0,0.1-0.1,0.2s-0.1,0.1-0.2,0.1L585.8,340.7C585.9,340.8,585.9,340.8,585.8,340.7z
			 M588.8,336.7c0.4,0,0.8-0.1,1-0.3s0.3-0.5,0.3-0.9s-0.1-0.7-0.3-0.9c-0.2-0.2-0.5-0.3-1-0.3h-1.5v2.3L588.8,336.7L588.8,336.7z"
			/>
		<path d="M593.2,340.7c0,0-0.1-0.1-0.1-0.2v-7.2c0-0.1,0-0.1,0.1-0.2s0.1-0.1,0.2-0.1h4.8c0.1,0,0.2,0,0.2,0.1s0.1,0.1,0.1,0.2v0.7
			c0,0.1,0,0.1-0.1,0.2s-0.1,0.1-0.2,0.1h-3.6v1.9h3.4c0.1,0,0.2,0,0.2,0.1s0.1,0.1,0.1,0.2v0.7c0,0.1,0,0.1-0.1,0.2
			c0,0-0.1,0.1-0.2,0.1h-3.4v2h3.7c0.1,0,0.2,0,0.2,0.1s0.1,0.1,0.1,0.2v0.8c0,0.1,0,0.1-0.1,0.2s-0.1,0.1-0.2,0.1h-4.9
			C593.4,340.8,593.3,340.8,593.2,340.7z"/>
		<path d="M599.4,340.8c0,0-0.1-0.1-0.1-0.2v-0.1l2.6-7.1c0.1-0.2,0.2-0.3,0.4-0.3h1.2c0.2,0,0.3,0.1,0.4,0.3l2.6,7.1v0.1
			c0,0.1,0,0.1-0.1,0.2c0,0-0.1,0.1-0.2,0.1h-1c-0.2,0-0.3-0.1-0.3-0.2l-0.5-1.3h-3.3l-0.5,1.3c-0.1,0.1-0.2,0.2-0.3,0.2h-1
			C599.5,340.8,599.4,340.8,599.4,340.8z M601.7,338h2.5l-1.2-3.4L601.7,338z"/>
	</g>
	<g>
		<path d="M1080.5,565.9c-0.1,0-0.1-0.1-0.1-0.2v-7.2c0-0.1,0-0.2,0.1-0.2s0.1-0.1,0.2-0.1h1c0.1,0,0.2,0,0.2,0.1
			c0.1,0,0.1,0.1,0.1,0.2v6.1h3.5c0.1,0,0.2,0,0.2,0.1c0.1,0,0.1,0.1,0.1,0.2v0.8c0,0.1,0,0.1-0.1,0.2c-0.1,0-0.1,0.1-0.2,0.1h-4.8
			C1080.6,566,1080.6,566,1080.5,565.9z"/>
		<path d="M1087.4,565.3c-0.6-0.5-0.8-1.3-0.9-2.2c0-0.2,0-0.5,0-0.9s0-0.7,0-1c0-1,0.3-1.7,0.9-2.2s1.3-0.8,2.3-0.8
			s1.7,0.3,2.3,0.8s0.9,1.3,0.9,2.2c0,0.4,0,0.7,0,1c0,0.2,0,0.5,0,0.9c0,1-0.3,1.8-0.9,2.2c-0.6,0.5-1.3,0.8-2.3,0.8
			C1088.7,566.1,1087.9,565.8,1087.4,565.3z M1090.9,564.4c0.3-0.3,0.4-0.7,0.5-1.3c0-0.4,0-0.7,0-0.9s0-0.5,0-0.9
			c0-0.6-0.2-1-0.5-1.3s-0.7-0.5-1.2-0.5s-0.9,0.2-1.2,0.5c-0.3,0.3-0.4,0.8-0.5,1.3c0,0.2,0,0.5,0,0.9s0,0.7,0,0.9
			c0,0.6,0.2,1,0.5,1.3s0.7,0.5,1.2,0.5S1090.6,564.7,1090.9,564.4z"/>
		<path d="M1093.6,565.9c0,0-0.1-0.1-0.1-0.2v-0.1l2.6-7.1c0.1-0.2,0.2-0.3,0.4-0.3h1.2c0.2,0,0.3,0.1,0.4,0.3l2.6,7.1v0.1
			c0,0.1,0,0.1-0.1,0.2s-0.1,0.1-0.2,0.1h-1c-0.2,0-0.3-0.1-0.3-0.2l-0.5-1.3h-3.3l-0.5,1.3c-0.1,0.1-0.2,0.2-0.3,0.2h-1
			C1093.7,566,1093.6,566,1093.6,565.9z M1095.9,563.2h2.5l-1.2-3.4L1095.9,563.2z"/>
		<path d="M1101.9,565.9c-0.1,0-0.1-0.1-0.1-0.2v-7.2c0-0.1,0-0.2,0.1-0.2s0.1-0.1,0.2-0.1h2.7c2.2,0,3.3,1,3.3,3c0,0.4,0,0.7,0,0.9
			c0,0.1,0,0.4,0,0.8c0,1-0.3,1.8-0.8,2.3s-1.3,0.7-2.4,0.7h-2.7C1102.1,566,1102,566,1101.9,565.9z M1104.8,564.7
			c0.6,0,1.1-0.1,1.3-0.4s0.4-0.7,0.4-1.3c0-0.4,0-0.7,0-0.8s0-0.4,0-0.8c0-0.6-0.2-1-0.4-1.3c-0.3-0.3-0.7-0.4-1.3-0.4h-1.3v5.2
			L1104.8,564.7L1104.8,564.7z"/>
		<path d="M1109.7,565.9c-0.1,0-0.1-0.1-0.1-0.2v-7.2c0-0.1,0-0.2,0.1-0.2s0.1-0.1,0.2-0.1h1.1c0.1,0,0.1,0,0.2,0.1
			c0.1,0,0.1,0.1,0.1,0.2v7.2c0,0.1,0,0.1-0.1,0.2c-0.1,0-0.1,0.1-0.2,0.1h-1.1C1109.8,566,1109.7,566,1109.7,565.9z"/>
		<path d="M1113,565.9c-0.1,0-0.1-0.1-0.1-0.2v-7.2c0-0.1,0-0.2,0.1-0.2s0.1-0.1,0.2-0.1h0.9c0.1,0,0.2,0.1,0.3,0.2l3.2,4.9v-4.8
			c0-0.1,0-0.2,0.1-0.2s0.1-0.1,0.2-0.1h0.9c0.1,0,0.2,0,0.2,0.1c0.1,0,0.1,0.1,0.1,0.2v7.2c0,0.1,0,0.2-0.1,0.2s-0.1,0.1-0.2,0.1
			h-0.9c-0.2,0-0.3-0.1-0.3-0.2l-3.1-4.8v4.7c0,0.1,0,0.1-0.1,0.2c-0.1,0-0.1,0.1-0.2,0.1h-0.9C1113.1,566,1113,566,1113,565.9z"/>
		<path d="M1121.3,565.3c-0.6-0.5-0.9-1.2-0.9-2.2c0-0.2,0-0.5,0-1s0-0.8,0-1c0-0.9,0.3-1.6,0.9-2.1s1.4-0.8,2.3-0.8
			c0.7,0,1.3,0.1,1.7,0.3c0.5,0.2,0.9,0.5,1.1,0.9c0.2,0.3,0.4,0.7,0.4,1c0,0.1,0,0.1-0.1,0.2s-0.1,0.1-0.2,0.1h-1.2
			c-0.1,0-0.1,0-0.2,0l-0.1-0.1c-0.1-0.3-0.3-0.5-0.5-0.7s-0.6-0.3-1-0.3c-0.5,0-0.9,0.1-1.2,0.4c-0.3,0.3-0.4,0.7-0.5,1.3
			c0,0.2,0,0.5,0,1s0,0.8,0,1c0,0.6,0.2,1,0.5,1.3s0.7,0.4,1.2,0.4s0.9-0.1,1.2-0.4s0.5-0.7,0.5-1.2v-0.3h-1.3c-0.1,0-0.1,0-0.2-0.1
			c-0.1,0-0.1-0.1-0.1-0.2v-0.6c0-0.1,0-0.1,0.1-0.2c0.1,0,0.1-0.1,0.2-0.1h2.6c0.1,0,0.2,0,0.2,0.1c0.1,0,0.1,0.1,0.1,0.2v1.2
			c0,0.6-0.1,1.1-0.4,1.6s-0.7,0.8-1.2,1s-1.1,0.4-1.8,0.4C1122.7,566.1,1121.9,565.8,1121.3,565.3z"/>
		<path d="M1131,565.9c-0.1,0-0.1-0.1-0.1-0.2v-7.2c0-0.1,0-0.2,0.1-0.2s0.1-0.1,0.2-0.1h2.7c2.2,0,3.3,1,3.3,3c0,0.4,0,0.7,0,0.9
			c0,0.1,0,0.4,0,0.8c0,1-0.3,1.8-0.8,2.3s-1.3,0.7-2.4,0.7h-2.7C1131.1,566,1131,566,1131,565.9z M1133.8,564.7
			c0.6,0,1.1-0.1,1.3-0.4s0.4-0.7,0.4-1.3c0-0.4,0-0.7,0-0.8s0-0.4,0-0.8c0-0.6-0.2-1-0.4-1.3c-0.3-0.3-0.7-0.4-1.3-0.4h-1.3v5.2
			L1133.8,564.7L1133.8,564.7z"/>
		<path d="M1139.3,565.3c-0.6-0.5-0.8-1.3-0.9-2.2c0-0.2,0-0.5,0-0.9s0-0.7,0-1c0-1,0.3-1.7,0.9-2.2s1.3-0.8,2.3-0.8
			s1.7,0.3,2.3,0.8s0.9,1.3,0.9,2.2c0,0.4,0,0.7,0,1c0,0.2,0,0.5,0,0.9c0,1-0.3,1.8-0.9,2.2c-0.6,0.5-1.3,0.8-2.3,0.8
			C1140.6,566.1,1139.8,565.8,1139.3,565.3z M1142.8,564.4c0.3-0.3,0.4-0.7,0.5-1.3c0-0.4,0-0.7,0-0.9s0-0.5,0-0.9
			c0-0.6-0.2-1-0.5-1.3s-0.7-0.5-1.2-0.5s-0.9,0.2-1.2,0.5c-0.3,0.3-0.4,0.8-0.5,1.3c0,0.2,0,0.5,0,0.9s0,0.7,0,0.9
			c0,0.6,0.2,1,0.5,1.3s0.7,0.5,1.2,0.5S1142.5,564.7,1142.8,564.4z"/>
		<path d="M1146.9,565.3c-0.6-0.5-0.8-1.2-0.9-2.2c0-0.2,0-0.5,0-1s0-0.8,0-1c0-0.9,0.3-1.7,0.9-2.2s1.3-0.8,2.3-0.8
			c0.7,0,1.2,0.1,1.7,0.3s0.9,0.5,1.1,0.9s0.4,0.8,0.4,1.3l0,0c0,0.1,0,0.1-0.1,0.2c-0.1,0-0.1,0.1-0.2,0.1h-1.1
			c-0.1,0-0.2,0-0.2-0.1c0,0-0.1-0.1-0.1-0.2c-0.1-0.5-0.3-0.8-0.6-1c-0.3-0.2-0.6-0.3-1.1-0.3c-1.1,0-1.6,0.6-1.6,1.8
			c0,0.2,0,0.5,0,0.9s0,0.7,0,0.9c0,1.2,0.6,1.8,1.6,1.8c0.4,0,0.8-0.1,1.1-0.3c0.3-0.2,0.5-0.5,0.6-1c0-0.1,0.1-0.2,0.1-0.2
			s0.1-0.1,0.2-0.1h1.1c0.1,0,0.1,0,0.2,0.1s0.1,0.1,0.1,0.2c0,0.5-0.2,0.9-0.4,1.3s-0.6,0.7-1.1,0.9s-1.1,0.3-1.7,0.3
			C1148.2,566.1,1147.4,565.8,1146.9,565.3z"/>
		<path d="M1153.9,565.9c-0.1,0-0.1-0.1-0.1-0.2v-7.2c0-0.1,0-0.2,0.1-0.2s0.1-0.1,0.2-0.1h1c0.1,0,0.2,0,0.2,0.1
			c0.1,0,0.1,0.1,0.1,0.2v2.6l2.4-2.7c0.1-0.1,0.2-0.2,0.4-0.2h1.1c0.1,0,0.1,0,0.2,0.1c0.1,0,0.1,0.1,0.1,0.2c0,0,0,0.1-0.1,0.1
			l-3,3.3l3.2,3.6v0.1c0,0.1,0,0.1-0.1,0.2s-0.1,0.1-0.2,0.1h-1.2c-0.2,0-0.3,0-0.3-0.1s-0.1-0.1-0.1-0.1l-2.6-2.9v2.8
			c0,0.1,0,0.1-0.1,0.2c-0.1,0-0.1,0.1-0.2,0.1L1153.9,565.9C1154,566,1153.9,566,1153.9,565.9z"/>
	</g>
	<g>
		<g>
			<circle class="st11" cx="562.2" cy="304.8" r="7"/>
		</g>
		<g>
			<path class="st0" d="M561.5,309.6c0,0-0.1-0.1-0.1-0.2v-0.8c-0.5-0.1-1-0.2-1.4-0.4s-0.7-0.5-0.9-0.8s-0.3-0.6-0.3-1
				c0-0.1,0-0.1,0.1-0.2c0,0,0.1-0.1,0.2-0.1h1.5c0.1,0,0.2,0,0.2,0s0.1,0.1,0.2,0.1c0.2,0.4,0.7,0.6,1.2,0.6c0.4,0,0.7-0.1,0.9-0.2
				s0.3-0.3,0.3-0.5c0-0.1-0.1-0.3-0.2-0.4s-0.3-0.2-0.5-0.3c-0.2-0.1-0.6-0.2-1-0.3c-0.9-0.2-1.5-0.4-2-0.8s-0.7-0.9-0.7-1.5
				s0.2-1.1,0.6-1.5s1-0.7,1.8-0.8V300c0-0.1,0-0.1,0.1-0.2c0.1,0,0.1-0.1,0.2-0.1h1c0.1,0,0.2,0,0.2,0.1s0.1,0.1,0.1,0.2v0.8
				c0.5,0.1,0.9,0.2,1.2,0.5c0.3,0.2,0.6,0.5,0.8,0.8s0.3,0.6,0.3,0.8c0,0.1,0,0.1-0.1,0.2s-0.1,0.1-0.2,0.1h-1.5
				c-0.2,0-0.3-0.1-0.4-0.2c0-0.1-0.2-0.3-0.3-0.4s-0.4-0.2-0.7-0.2s-0.5,0.1-0.7,0.2s-0.2,0.3-0.2,0.5s0.1,0.4,0.3,0.5
				s0.6,0.2,1.2,0.4c0.7,0.1,1.2,0.3,1.7,0.5s0.7,0.4,0.9,0.7c0.2,0.3,0.3,0.7,0.3,1.1c0,0.6-0.2,1.2-0.7,1.6s-1.1,0.7-1.9,0.8v0.8
				c0,0.1,0,0.1-0.1,0.2s-0.1,0.1-0.2,0.1h-1C561.6,309.7,561.5,309.7,561.5,309.6z"/>
		</g>
	</g>
	<polygon points="378,512.8 383.4,503.4 372.6,497.9 374.5,503 360.4,506.4 362,510.9 376.1,507.5 	"/>
	<g>
		<polyline class="st12" points="837.8,257.8 988.3,257.8 988.3,303.3 837.8,303.3 		"/>
		<g>
			<g>
				<g>
					<g>
						<g>
							<g>
								<defs>
									<path id="SVGID_3_" d="M962.8,287.7c-0.6,0-1.2-0.1-1.7-0.2c-0.9,1.2-2,2.2-3.3,2.9c1.2,0.6,2.4,1,3.8,1
										c5.2,0,8.8-5.5,9.2-10.1C970.8,281.9,969.7,287.7,962.8,287.7"/>
								</defs>
								<clipPath id="SVGID_4_">
									<use xlink:href="#SVGID_3_"  style="overflow:visible;"/>
								</clipPath>
								
									<linearGradient id="SVGID_5_" gradientUnits="userSpaceOnUse" x1="2361.0076" y1="463.2152" x2="2362.5051" y2="463.2152" gradientTransform="matrix(-5.501 -1.2836 -1.2836 5.501 14551.2637 769.8104)">
									<stop  offset="0" style="stop-color:#06984F"/>
									<stop  offset="0.1209" style="stop-color:#06984F"/>
									<stop  offset="0.1692" style="stop-color:#129C4F"/>
									<stop  offset="0.4628" style="stop-color:#55B352"/>
									<stop  offset="0.7089" style="stop-color:#86C454"/>
									<stop  offset="0.8952" style="stop-color:#A5CE55"/>
									<stop  offset="1" style="stop-color:#B0D255"/>
								</linearGradient>
								<polygon class="st13" points="973.2,281.8 958.6,278.4 955.7,290.9 970.2,294.3 								"/>
							</g>
						</g>
					</g>
				</g>
			</g>
		</g>
		<g>
			<g>
				<g>
					<g>
						<g>
							<g>
								<defs>
									<path id="SVGID_6_" d="M960.4,274.7c2.6,0.3,5.8,2.1,5.8,5.9c0,3.7-2.4,5.4-4.4,5.9c-0.2,0.3-0.4,0.7-0.7,1
										c0.5,0.1,1.1,0.2,1.7,0.2c6.8,0,7.9-5.8,8.1-6.4c0-0.3,0-0.6,0-0.9c0-5.2-4-7.2-6.8-7.2
										C961.6,273.2,960.4,274.7,960.4,274.7"/>
								</defs>
								<clipPath id="SVGID_7_">
									<use xlink:href="#SVGID_6_"  style="overflow:visible;"/>
								</clipPath>
								
									<linearGradient id="SVGID_8_" gradientUnits="userSpaceOnUse" x1="2006.7153" y1="505.3604" x2="2008.2125" y2="505.3604" gradientTransform="matrix(0 12.4287 12.4287 0 -5315.2729 -24671.6211)">
									<stop  offset="0" style="stop-color:#10A84D"/>
									<stop  offset="7.580000e-02" style="stop-color:#33B14F"/>
									<stop  offset="0.1722" style="stop-color:#59BB51"/>
									<stop  offset="0.2728" style="stop-color:#79C452"/>
									<stop  offset="0.377" style="stop-color:#91CA53"/>
									<stop  offset="0.4866" style="stop-color:#A2CE54"/>
									<stop  offset="0.6048" style="stop-color:#ADD155"/>
									<stop  offset="0.7473" style="stop-color:#B0D255"/>
									<stop  offset="1" style="stop-color:#B0D255"/>
								</linearGradient>
								<rect x="960.4" y="273.2" class="st14" width="10.6" height="14.5"/>
							</g>
						</g>
					</g>
				</g>
			</g>
		</g>
		<g>
			<g>
				<g>
					<g>
						<g>
							<g>
								<defs>
									<path id="SVGID_9_" d="M944.8,280.4c0,0.3,0,0.6,0,0.9c0.2,0.6,1.2,6.4,8.1,6.4c1.5,0,2.7-0.4,3.7-1.1
										c-0.3,0.1-0.8,0.2-1.2,0.2c-1.9,0-5.9-1.4-5.9-6.2c0-3.8,3.2-5.6,5.8-5.9c0,0-1.2-1.5-3.7-1.5
										C948.8,273.2,944.8,275.2,944.8,280.4"/>
								</defs>
								<clipPath id="SVGID_10_">
									<use xlink:href="#SVGID_9_"  style="overflow:visible;"/>
								</clipPath>
								
									<linearGradient id="SVGID_11_" gradientUnits="userSpaceOnUse" x1="2006.6199" y1="504.8532" x2="2008.1169" y2="504.8532" gradientTransform="matrix(0 12.4157 12.4157 0 -5317.3555 -24644.3418)">
									<stop  offset="0" style="stop-color:#10A84D"/>
									<stop  offset="7.580000e-02" style="stop-color:#33B14F"/>
									<stop  offset="0.1722" style="stop-color:#59BB51"/>
									<stop  offset="0.2728" style="stop-color:#79C452"/>
									<stop  offset="0.377" style="stop-color:#91CA53"/>
									<stop  offset="0.4866" style="stop-color:#A2CE54"/>
									<stop  offset="0.6048" style="stop-color:#ADD155"/>
									<stop  offset="0.7473" style="stop-color:#B0D255"/>
									<stop  offset="1" style="stop-color:#B0D255"/>
								</linearGradient>
								<rect x="944.8" y="273.2" class="st15" width="11.9" height="14.5"/>
							</g>
						</g>
					</g>
				</g>
			</g>
		</g>
		<g>
			<g>
				<g>
					<g>
						<g>
							<g>
								<defs>
									<path id="SVGID_12_" d="M952.9,280.7L952.9,280.7c0,0.1,0,0.2,0,0.3c0,0.4-0.1,0.8-0.1,1.2c0,1.8,0.8,3.5,1.4,4.4
										c0.5,0.1,1,0.2,1.4,0.2s0.8-0.1,1.2-0.3c0.5-0.3,0.9-0.7,1.2-1.1c-0.2-0.3-1.4-1.8-1.4-3.8c0-1.9,1-2.7,1.3-2.9l0,0l0,0
										c-0.7-0.5-1.5-0.7-1.9-0.7C955.3,278,953.3,278.5,952.9,280.7"/>
								</defs>
								<clipPath id="SVGID_13_">
									<use xlink:href="#SVGID_12_"  style="overflow:visible;"/>
								</clipPath>
								
									<linearGradient id="SVGID_14_" gradientUnits="userSpaceOnUse" x1="1912.9628" y1="399.899" x2="1914.4601" y2="399.899" gradientTransform="matrix(0 6.1159 6.1159 0 -1490.342 -11421.5586)">
									<stop  offset="0" style="stop-color:#06984F"/>
									<stop  offset="0.1868" style="stop-color:#06984F"/>
									<stop  offset="0.391" style="stop-color:#42AC51"/>
									<stop  offset="0.7802" style="stop-color:#B0D255"/>
									<stop  offset="1" style="stop-color:#B0D255"/>
								</linearGradient>
								<rect x="952.8" y="278" class="st16" width="5.2" height="8.9"/>
							</g>
						</g>
					</g>
				</g>
			</g>
		</g>
		<g>
			<g>
				<g>
					<g>
						<g>
							<g>
								<defs>
									<path id="SVGID_15_" d="M952.9,280.7c0.5-2.2,2.4-2.7,3-2.7c0.7,0,1.3,0.1,2.1,0.6l0,0c0.8,0.6,1.4,1.5,1.4,3
										c0,1.3-0.5,2.6-1.4,3.7c-1.1,1.4-2.8,2.3-5,2.3c-6.8,0-7.9-5.8-8.1-6.4c0.4,4.6,4,10.1,9.2,10.1c5.1,0,9-5.2,9-9.5
										c0-3-1.7-5.7-5.2-5.7C954.8,276.2,953.3,278.6,952.9,280.7"/>
								</defs>
								<clipPath id="SVGID_16_">
									<use xlink:href="#SVGID_15_"  style="overflow:visible;"/>
								</clipPath>
								
									<linearGradient id="SVGID_17_" gradientUnits="userSpaceOnUse" x1="2140.9126" y1="691.9458" x2="2142.4097" y2="691.9458" gradientTransform="matrix(4.5679 -17.2315 -17.2315 -4.5679 3096.0042 40342.4102)">
									<stop  offset="0" style="stop-color:#06984F"/>
									<stop  offset="5.490000e-02" style="stop-color:#06984F"/>
									<stop  offset="0.1177" style="stop-color:#29A450"/>
									<stop  offset="0.214" style="stop-color:#59B452"/>
									<stop  offset="0.3056" style="stop-color:#7FC153"/>
									<stop  offset="0.3901" style="stop-color:#9ACA54"/>
									<stop  offset="0.4648" style="stop-color:#AAD055"/>
									<stop  offset="0.522" style="stop-color:#B0D255"/>
									<stop  offset="1" style="stop-color:#B0D255"/>
								</linearGradient>
								<polygon class="st17" points="961.9,295.9 966.9,277.2 946.1,271.7 941.1,290.4 								"/>
							</g>
						</g>
					</g>
				</g>
			</g>
		</g>
		<g>
			<g>
				<g>
					<g>
						<g>
							<g>
								<defs>
									<path id="SVGID_18_" d="M961.5,267.8c-0.8,0-1.7,0.2-2.6,0.7c-1.7,0.9-2.1,2.5-2,3.5c0.1,1.4,1.2,2.5,1.2,2.5
										s0.2-1.7,2.2-2.9c2.7-1.6,5.5-0.3,5.5-0.3v-0.1v-0.4C965.5,269.4,963.8,267.8,961.5,267.8L961.5,267.8z"/>
								</defs>
								<clipPath id="SVGID_19_">
									<use xlink:href="#SVGID_18_"  style="overflow:visible;"/>
								</clipPath>
								
									<linearGradient id="SVGID_20_" gradientUnits="userSpaceOnUse" x1="2083.7751" y1="835.5884" x2="2085.2722" y2="835.5884" gradientTransform="matrix(5.2786 -5.2106 -5.2106 -5.2786 -5688.5938 15543.8936)">
									<stop  offset="0" style="stop-color:#5CB148"/>
									<stop  offset="0.323" style="stop-color:#78BC4C"/>
									<stop  offset="1" style="stop-color:#B0D255"/>
								</linearGradient>
								<polygon class="st18" points="961.2,278.9 969.1,271.2 961.3,263.3 953.5,271.1 								"/>
							</g>
						</g>
					</g>
				</g>
			</g>
		</g>
		<rect x="889.4" y="272.1" class="st0" width="1.2" height="14.9"/>
		<path class="st0" d="M888,281.7c0,3.3-1.8,5.5-4.5,5.5c-2.8,0-4.6-2.2-4.6-5.5c0-3.4,1.8-5.5,4.6-5.5
			C886.3,276.1,888,278.3,888,281.7 M880.2,281.7c0,2.5,1.3,4.5,3.2,4.5s3.2-1.9,3.2-4.5s-1.3-4.5-3.2-4.5S880.2,279,880.2,281.7"/>
		<path class="st0" d="M913.8,281.7c0,3.3-1.8,5.5-4.5,5.5c-2.8,0-4.6-2.2-4.6-5.5c0-3.4,1.8-5.5,4.6-5.5
			C912,276.1,913.8,278.3,913.8,281.7 M906,281.7c0,2.5,1.3,4.5,3.2,4.5s3.2-1.9,3.2-4.5s-1.3-4.5-3.2-4.5S906,279,906,281.7"/>
		<path class="st0" d="M878,281.7c0,3.3-1.8,5.5-4.5,5.5c-2.8,0-4.6-2.2-4.6-5.5c0-3.4,1.8-5.5,4.6-5.5
			C876.3,276.1,878,278.3,878,281.7 M870.2,281.7c0,2.5,1.3,4.5,3.2,4.5s3.2-1.9,3.2-4.5s-1.3-4.5-3.2-4.5S870.2,279,870.2,281.7"/>
		<path class="st0" d="M927.1,276.4v0.5c0,0.5,0,0.9-0.1,1.4c0.7-1.3,1.9-2,3.3-2c2.3,0,3.2,1.7,3.3,3.9c0,0.5,0.1,1.4,0.1,1.9v4.9
			h-1.2v-5c0-0.6,0-1.6-0.1-2.1c-0.2-1.7-1-2.6-2.3-2.6c-1.1,0-2.1,0.7-2.7,1.9c-0.2,0.4-0.3,0.8-0.3,1.7c0,0.3,0,1,0,1.2v4.9h-1.2
			v-14.9h1.2V276.4L927.1,276.4L927.1,276.4z"/>
		<path class="st0" d="M940.3,277.6c-0.8-0.3-1.2-0.4-2-0.4c-1.2,0-2.1,0.7-2.1,1.6c0,2.2,5,1.9,5,5.3c0,1.8-1.5,3-3.6,3
			c-0.9,0-1.7-0.1-2.6-0.5l0.1-1.2c0.9,0.5,1.6,0.7,2.4,0.7c1.4,0,2.4-0.9,2.4-2c0-2.5-4.8-2.1-4.8-5.3c0-1.6,1.3-2.7,3.3-2.7
			c0.8,0,1.1,0,2.1,0.4L940.3,277.6z"/>
		<path class="st0" d="M898.7,276.4c0,0,1.5,6,1.8,7.4c0.2,0.7,0.4,1.7,0.4,1.7s0.2-1,0.4-1.7c0.4-1.4,2.1-7.4,2.1-7.4h1.3
			l-3.1,10.6h-1.4c0,0-1.6-7-1.8-7.9c-0.1-0.4-0.2-1.1-0.2-1.1s-0.1,0.7-0.2,1.1c-0.2,0.9-1.8,7.9-1.8,7.9h-1.4l-3.1-10.6h1.3
			c0,0,1.7,6,2.1,7.4c0.2,0.7,0.4,1.7,0.4,1.7s0.2-1,0.4-1.7c0.3-1.4,1.8-7.4,1.8-7.4H898.7z"/>
		<path class="st0" d="M862.4,274.8c0,0,2,7.2,2.3,8.5c0.2,0.7,0.5,1.9,0.5,1.9s0.3-1.2,0.4-1.9c0.3-1.2,2.2-8.5,2.2-8.5h1.3
			L866,287h-1.4c0,0-2.3-8.8-2.4-9.3c-0.1-0.5-0.3-1.3-0.3-1.3s-0.2,0.9-0.3,1.3c-0.1,0.5-2.4,9.3-2.4,9.3h-1.4l-3.1-12.2h1.3
			c0,0,1.8,7.2,2.2,8.5c0.2,0.7,0.4,1.9,0.4,1.9s0.3-1.2,0.5-1.9c0.3-1.2,2.3-8.5,2.3-8.5H862.4z"/>
		<path class="st0" d="M915.1,287v-10.6h1v2.4c0,0,0.6-2.2,3.8-2.4c0.5,0,1,0,1,0v-2.7l1.2-0.5v3.1h2.5v1.1h-2.5v6.4
			c0,1.5,0.5,2,1.5,2c0.6,0,1-0.2,1-0.2l0.1,1c0,0-0.6,0.2-1.2,0.2c-0.3,0-1.3,0-2-0.6c-0.4-0.5-0.7-1.2-0.7-2.5c0-1.2,0-6.4,0-6.4
			c-0.4,0-1.3,0-2,0.1c-1,0.3-2.6,1.3-2.6,3.8v5.6L915.1,287L915.1,287z"/>
	</g>
</g>
</svg>
