<?xml version="1.0" encoding="utf-8"?>
<!-- Generator: Adobe Illustrator 21.0.2, SVG Export Plug-In . SVG Version: 6.00 Build 0)  -->
<svg version="1.1" xmlns="http://www.w3.org/2000/svg" xmlns:xlink="http://www.w3.org/1999/xlink" x="0px" y="0px"
	 viewBox="0 0 1472 755" style="enable-background:new 0 0 1472 755;" xml:space="preserve">
<style type="text/css">
	.st0{display:none;fill:#E2E2E2;}
	.st1{fill:#FFFFFF;}
	.st2{fill:#D6E037;}
	.st3{enable-background:new    ;}
	.st4{fill:#004529;}
	.st5{fill:#007E4B;}
	.st6{fill:#34A644;}
	.st7{fill:#1D5B25;}
	.st8{fill:#87B841;}
	.st9{fill:#4A6524;}
	.st10{opacity:0;}
	.st11{clip-path:url(#SVGID_2_);enable-background:new    ;}
	.st12{fill:#1E5E26;}
	.st13{fill:#231F20;}
	.st14{fill:none;}
	.st15{font-family:'Rubik-Medium';}
	.st16{font-size:11px;}
	.st17{fill:#00653A;}
	.st18{clip-path:url(#SVGID_4_);fill:url(#SVGID_5_);}
	.st19{clip-path:url(#SVGID_7_);fill:url(#SVGID_8_);}
	.st20{clip-path:url(#SVGID_10_);fill:url(#SVGID_11_);}
	.st21{clip-path:url(#SVGID_13_);fill:url(#SVGID_14_);}
	.st22{clip-path:url(#SVGID_16_);fill:url(#SVGID_17_);}
	.st23{clip-path:url(#SVGID_19_);fill:url(#SVGID_20_);}
</style>
<g id="base">
	<rect x="-30" y="-79.3" class="st0" width="1552" height="961.9"/>
	<path class="st1" d="M1042.4,63.8l-28.6-7.2c0,0-639.7,109-693.6,118c-54.3,9.2-109.3,42.3-121.5,66
		c-12.6,24.4-19.4,30.1-15.3,48.6c4.2,18.9,45.8,134.6,45.8,134.6l64.1-11.8l94.1,244.2l85.7-18.4l19.5,46.3l310.6-64.4l-10.4-18.5
		L1357,482.1l15.4-33.8L1042.4,63.8z"/>
	<path class="st2" d="M324.4,225.5c0,0-6.2,2.5-12.8,5.3c-5.6,2.4-10,6.5-13.8,10c-5.8,8-18.5,23-12.8,37.8
		c4,10.2,24.7,56.1,24.7,56.1l-22,4l17.4,46l-57.3,10.7c0,0-35-99.4-36.7-104.4c-1.7-5-1.3-13.9-1.3-13.9l24.3-4.3
		c0,0,10-32.8,31.9-48c21.6-15,48.2-24.1,48.2-24.1L324.4,225.5z"/>
	<polygon class="st2" points="529.8,317.9 559.9,380 596.1,373.2 628.8,438.2 591.5,445.5 599.2,461.3 636.7,453.9 645.6,452.2 
		661.2,449.1 619.9,368.6 594.3,318.8 588.4,307.1 	"/>
</g>
<g id="landmarks">
	<g id="shop-woolworths">
		<g>
			<g class="st3">
				<g>
					<polygon class="st4" points="1332.5,452.5 1325.3,462.3 978.1,535.1 985.4,525.3 					"/>
				</g>
				<g>
					<polygon class="st4" points="985.4,525.3 978.1,535.1 782.4,576.1 789.7,566.4 					"/>
				</g>
				<g>
					<polygon class="st5" points="990.2,66.4 1056.6,87.7 1345.4,426.4 1332.5,452.5 985.4,525.3 789.7,566.4 760.4,572.5 
						528.8,144.7 					"/>
				</g>
				<g>
					<polygon class="st4" points="789.7,566.4 782.4,576.1 753.1,582.3 760.4,572.5 					"/>
				</g>
				<g>
					<polygon class="st4" points="760.4,572.5 753.1,582.3 521.5,154.4 528.8,144.7 					"/>
				</g>
			</g>
		</g>
	</g>
	<g id="shop-bws">
		<g>
			<g class="st3">
				<g>
					<polygon class="st5" points="526.6,145 591.4,265.4 486,284.4 426.4,161.9 					"/>
				</g>
				<g>
					<polygon class="st4" points="591.4,265.4 584.1,275.1 478.8,294.1 486,284.4 					"/>
				</g>
				<g>
					<polygon class="st4" points="486,284.4 478.8,294.1 419.1,171.7 426.4,161.9 					"/>
				</g>
			</g>
		</g>
	</g>
	<g id="shop-t8">
		<g>
			<g class="st3">
				<g>
					<polygon class="st6" points="669.9,475.3 726.7,580.3 655.2,595.5 601.1,489.2 					"/>
				</g>
				<g>
					<polygon class="st7" points="726.7,580.3 719.4,590.1 648,605.2 655.2,595.5 					"/>
				</g>
				<g>
					<polygon class="st7" points="655.2,595.5 648,605.2 593.8,499 601.1,489.2 					"/>
				</g>
			</g>
		</g>
	</g>
	<g id="shop-t7">
		<g>
			<g class="st3">
				<g>
					<polygon class="st6" points="599.2,489.4 652.1,596.4 584,610.6 533.6,502.4 					"/>
				</g>
				<g>
					<polygon class="st7" points="652.1,596.4 644.9,606.1 576.8,620.4 584,610.6 					"/>
				</g>
				<g>
					<polygon class="st7" points="584,610.6 576.8,620.4 526.4,512.2 533.6,502.4 					"/>
				</g>
			</g>
		</g>
	</g>
	<g id="shop-t5">
		<g>
			<g class="st3">
				<g>
					<polygon class="st6" points="531.3,502.8 557.4,559 416.7,587.8 393.5,530.3 					"/>
				</g>
				<g>
					<polygon class="st7" points="557.4,559 550.1,568.7 409.5,597.5 416.7,587.8 					"/>
				</g>
				<g>
					<polygon class="st7" points="416.7,587.8 409.5,597.5 386.2,540 393.5,530.3 					"/>
				</g>
			</g>
		</g>
	</g>
	<g id="centre-management">
		<g>
			<g class="st3">
				<g>
					<polygon class="st8" points="424.8,161.9 441.4,196 408,201.8 391.9,167.4 					"/>
				</g>
				<g>
					<polygon class="st9" points="441.4,196 434.2,205.8 400.8,211.5 408,201.8 					"/>
				</g>
				<g>
					<polygon class="st9" points="408,201.8 400.8,211.5 384.6,177.2 391.9,167.4 					"/>
				</g>
			</g>
		</g>
	</g>
	<g class="st10">
		<g>
			<g class="st3">
				<g>
					<polygon class="st9" points="421.6,208.6 414.3,218.3 402.9,220.3 410.1,210.6 					"/>
				</g>
				<g>
					<polygon class="st9" points="410.1,210.6 402.9,220.3 395.2,221.6 402.5,211.9 					"/>
				</g>
				<g>
					<polygon class="st8" points="402.6,194.6 406.6,203.1 418,201.1 421.6,208.6 410.1,210.6 402.5,211.9 388.5,214.3 381.1,198.3 
											"/>
				</g>
				<g>
					<polygon class="st9" points="402.5,211.9 395.2,221.6 381.2,224.1 388.5,214.3 					"/>
				</g>
				<g>
					<polygon class="st9" points="388.5,214.3 381.2,224.1 373.9,208 381.1,198.3 					"/>
				</g>
			</g>
		</g>
	</g>
	<g id="toilet-disabled">
		<g>
			<g class="st3">
				<g>
					<polygon class="st8" points="421.8,209.6 427.8,222.1 394.5,227.9 388.7,215.3 					"/>
				</g>
				<g>
					<polygon class="st9" points="427.8,222.1 420.5,231.9 387.2,237.7 394.5,227.9 					"/>
				</g>
				<g>
					<polygon class="st9" points="394.5,227.9 387.2,237.7 381.4,225 388.7,215.3 					"/>
				</g>
			</g>
		</g>
	</g>
	<g id="toilet-male">
		<g>
			<g class="st3">
				<g>
					<polygon class="st8" points="428,223.6 437.3,243.1 364.3,256 355.7,236.3 					"/>
				</g>
				<g>
					<polygon class="st9" points="437.3,243.1 430,252.9 357.1,265.7 364.3,256 					"/>
				</g>
				<g>
					<polygon class="st9" points="364.3,256 357.1,265.7 348.4,246 355.7,236.3 					"/>
				</g>
			</g>
		</g>
	</g>
	<g id="toilet-baby">
		<g>
			<g class="st3">
				<g>
					<polygon class="st8" points="437.4,244.3 448.8,268.2 375.1,281.4 364.4,257.1 					"/>
				</g>
				<g>
					<polygon class="st9" points="448.8,268.2 441.5,277.9 367.8,291.1 375.1,281.4 					"/>
				</g>
				<g>
					<polygon class="st9" points="375.1,281.4 367.8,291.1 357.2,266.9 364.4,257.1 					"/>
				</g>
			</g>
		</g>
	</g>
	<g id="toilet-female">
		<g>
			<g class="st3">
				<g>
					<polygon class="st8" points="449,269.4 458.6,289.7 384.3,303.2 375.2,282.6 					"/>
				</g>
				<g>
					<polygon class="st9" points="458.6,289.7 451.4,299.5 377,312.9 384.3,303.2 					"/>
				</g>
				<g>
					<polygon class="st9" points="384.3,303.2 377,312.9 368,292.3 375.2,282.6 					"/>
				</g>
			</g>
		</g>
	</g>
	<g id="shop-t1">
		<g>
			<g class="st3">
				<g>
					<path class="st6" d="M346.5,220.6l22.2,50.6l-76.6-2.6c-0.1-0.3-2.7-6.1-1-14C293.7,242.2,305.9,225.6,346.5,220.6z"/>
				</g>
				<g>
					<polygon class="st7" points="368.7,271.2 361.5,280.9 284.9,278.3 292.1,268.6 					"/>
				</g>
				<g class="st3">
					<defs>
						<path id="SVGID_1_" class="st3" d="M289.2,252.5l7.2-9.7c-3,4-4.6,8.1-5.4,11.8c-1.7,7.9,0.9,13.7,1,14l-7.2,9.7
							c-0.1-0.3-2.7-6.1-1-14C284.6,260.6,286.3,256.5,289.2,252.5z"/>
					</defs>
					<clipPath id="SVGID_2_">
						<use xlink:href="#SVGID_1_"  style="overflow:visible;"/>
					</clipPath>
					<g class="st11">
						<path class="st12" d="M292.1,268.6l-7.2,9.7c-0.1-0.3-2.7-6.1-1-14c0.8-3.7,2.4-7.7,5.4-11.8l7.2-9.7c-3,4-4.6,8.1-5.4,11.8
							C289.4,262.5,292,268.3,292.1,268.6"/>
					</g>
				</g>
			</g>
		</g>
	</g>
	<g id="shop-t11">
		<g>
			<g class="st3">
				<g>
					<polygon class="st6" points="513.3,296.6 513.5,297.4 526.6,343.5 427.4,362.1 406.8,316 					"/>
				</g>
				<g>
					<polygon class="st7" points="526.6,343.5 519.3,353.3 420.2,371.9 427.4,362.1 					"/>
				</g>
				<g>
					<polygon class="st7" points="427.4,362.1 420.2,371.9 399.6,325.7 406.8,316 					"/>
				</g>
			</g>
		</g>
	</g>
	<g id="shop-t10">
		<g>
			<g class="st3">
				<g>
					<polygon class="st6" points="526.3,345.2 540.2,394 448.7,411.6 427.3,363.7 					"/>
				</g>
				<g>
					<polygon class="st7" points="540.2,394 533,403.7 441.4,421.3 448.7,411.6 					"/>
				</g>
				<g>
					<polygon class="st7" points="448.7,411.6 441.4,421.3 420,373.4 427.3,363.7 					"/>
				</g>
			</g>
		</g>
	</g>
	<g id="shop-t9">
		<g>
			<g class="st3">
				<g>
					<polygon class="st6" points="539.7,395.7 554.2,446.4 470.7,462.8 448.5,413.1 					"/>
				</g>
				<g>
					<polygon class="st7" points="554.2,446.4 547,456.1 463.5,472.5 470.7,462.8 					"/>
				</g>
				<g>
					<polygon class="st7" points="470.7,462.8 463.5,472.5 441.2,422.8 448.5,413.1 					"/>
				</g>
			</g>
		</g>
	</g>
	<g id="shop-t2">
		<g>
			<g class="st3">
				<g>
					<polygon class="st6" points="404.6,316.6 425.1,362.6 334.1,379.5 315.3,332.9 					"/>
				</g>
				<g>
					<polygon class="st7" points="425.1,362.6 417.9,372.3 326.9,389.3 334.1,379.5 					"/>
				</g>
				<g>
					<polygon class="st7" points="334.1,379.5 326.9,389.3 308,342.6 315.3,332.9 					"/>
				</g>
			</g>
		</g>
	</g>
	<g id="shop-t3">
		<g>
			<g class="st3">
				<g>
					<polygon class="st6" points="425,364.1 446.3,411.9 353.6,429.6 333.9,381 					"/>
				</g>
				<g>
					<polygon class="st7" points="446.3,411.9 439.1,421.7 346.3,439.4 353.6,429.6 					"/>
				</g>
				<g>
					<polygon class="st7" points="353.6,429.6 346.3,439.4 326.7,390.8 333.9,381 					"/>
				</g>
			</g>
		</g>
	</g>
	<g id="shop-t4">
		<g>
			<g class="st3">
				<g>
					<polygon class="st7" points="468.4,463.4 461.2,473.1 422.2,480.7 429.5,471 					"/>
				</g>
				<g>
					<polygon class="st7" points="429.5,471 422.2,480.7 419.6,474.7 426.9,465 					"/>
				</g>
				<g>
					<polygon class="st7" points="426.9,465 419.6,474.7 389.2,480.6 396.5,470.9 					"/>
				</g>
				<g>
					<polygon class="st6" points="446.2,413.5 468.4,463.4 429.5,471 426.9,465 396.5,470.9 399,477 373.9,481.9 353.4,431.2 					
						"/>
				</g>
				<g>
					<polygon class="st7" points="399,477 391.7,486.7 366.6,491.6 373.9,481.9 					"/>
				</g>
				<g>
					<polygon class="st7" points="373.9,481.9 366.6,491.6 346.1,440.9 353.4,431.2 					"/>
				</g>
			</g>
		</g>
	</g>
	<g id="shop-t6">
		<g>
			<g class="st3">
				<g>
					<polygon class="st7" points="592.4,634.9 585.1,644.6 511.3,660.2 518.6,650.5 					"/>
				</g>
				<g>
					<polygon class="st7" points="518.6,650.5 511.3,660.2 491.4,614.5 498.7,604.7 					"/>
				</g>
				<g>
					<polygon class="st6" points="557.8,560.7 570.6,588.1 571.3,589.7 592.4,634.9 518.6,650.5 498.7,604.7 428.7,619.3 
						416.6,589.7 					"/>
				</g>
				<g>
					<polygon class="st7" points="498.7,604.7 491.4,614.5 421.4,629 428.7,619.3 					"/>
				</g>
				<g>
					<polygon class="st7" points="428.7,619.3 421.4,629 409.4,599.4 416.6,589.7 					"/>
				</g>
			</g>
		</g>
	</g>
	<g id="shop-t1a">
		<g>
			<g class="st3">
				<g>
					<polygon class="st7" points="382,303.5 374.8,313.3 346.9,318.3 354.2,308.6 					"/>
				</g>
				<g>
					<polygon class="st7" points="354.2,308.6 346.9,318.3 345.6,315.1 352.8,305.4 					"/>
				</g>
				<g>
					<polygon class="st7" points="352.8,305.4 345.6,315.1 332.6,317.4 339.8,307.7 					"/>
				</g>
				<g>
					<polygon class="st6" points="291.7,269.7 368.4,272.4 382,303.5 354.2,308.6 352.8,305.4 339.8,307.7 341.2,310.9 310.6,316.4 
											"/>
				</g>
				<g>
					<polygon class="st7" points="341.2,310.9 333.9,320.6 303.4,326.2 310.6,316.4 					"/>
				</g>
				<g>
					<polygon class="st7" points="310.6,316.4 303.4,326.2 284.5,279.5 291.7,269.7 					"/>
				</g>
			</g>
		</g>
	</g>
	<g id="shop-k1">
		<g>
			<g class="st3">
				<g>
					<polygon class="st6" points="603.2,366.2 618.9,396.5 583.8,403.3 568.5,372.8 					"/>
				</g>
				<g>
					<polygon class="st7" points="618.9,396.5 611.7,406.3 576.6,413 583.8,403.3 					"/>
				</g>
				<g>
					<polygon class="st7" points="583.8,403.3 576.6,413 561.3,382.6 568.5,372.8 					"/>
				</g>
			</g>
		</g>
	</g>
	<g id="shop-k2">
		<g>
			<g class="st3">
				<g>
					<polygon class="st6" points="620.1,397.9 636.2,429 600.7,435.9 584.9,404.6 					"/>
				</g>
				<g>
					<polygon class="st7" points="636.2,429 629,438.7 593.4,445.7 600.7,435.9 					"/>
				</g>
				<g>
					<polygon class="st7" points="600.7,435.9 593.4,445.7 577.7,414.4 584.9,404.6 					"/>
				</g>
			</g>
		</g>
	</g>
	<g id="shop-k4">
		<g>
			<g class="st3">
				<g>
					<polygon class="st6" points="541.2,467.7 546.5,479.3 511.8,486.1 506.6,474.5 					"/>
				</g>
				<g>
					<polygon class="st7" points="546.5,479.3 539.3,489 504.5,495.9 511.8,486.1 					"/>
				</g>
				<g>
					<polygon class="st7" points="511.8,486.1 504.5,495.9 499.4,484.3 506.6,474.5 					"/>
				</g>
			</g>
		</g>
	</g>
	<g id="shop-k3">
		<g>
			<g class="st3">
				<g>
					<polygon class="st6" points="500.2,476.7 505.5,488.3 470.8,495.1 465.6,483.5 					"/>
				</g>
				<g>
					<polygon class="st7" points="505.5,488.3 498.3,498 463.5,504.9 470.8,495.1 					"/>
				</g>
				<g>
					<polygon class="st7" points="470.8,495.1 463.5,504.9 458.4,493.3 465.6,483.5 					"/>
				</g>
			</g>
		</g>
	</g>
</g>
<g id="nopointer">
	<g>
		<circle class="st13" cx="408.4" cy="262.3" r="7"/>
		<g>
			<circle class="st1" cx="408.4" cy="259.1" r="1.4"/>
			<path class="st1" d="M411.3,261.4l-1.5-0.8l0,0l0,0l0,0l0,0c-0.2-0.1-0.4-0.1-0.6-0.1l0,0c-0.1,0-0.1,0.1-0.2,0.1
				c-0.2,0.1-0.4,0.2-0.6,0.2c-0.2,0-0.4-0.1-0.6-0.2c-0.1,0-0.1-0.1-0.2-0.1l0,0c-0.2-0.1-0.4,0-0.6,0.1l0,0l0,0l0,0c0,0,0,0,0,0
				l-1.5,0.8c-0.4,0.2-0.5,0.6-0.3,0.9c0.2,0.3,0.5,0.4,0.9,0.2l0.8-0.4c-0.2,0.6-0.1,1.1-0.1,1.1c0,0.1,0.7,0.3,1.6,0.3
				c0.9,0,1.6-0.1,1.6-0.3c0,0,0.1-0.4-0.1-1.1l0.8,0.4c0.4,0.2,0.7,0.1,0.9-0.2C411.8,262,411.7,261.6,411.3,261.4z"/>
			<path class="st1" d="M409.3,264.2c0.2-0.3,0.5-0.3,0.6-0.4c0.1,0,0.2-0.1,0.2-0.2v-0.4c-0.1,0.1-0.3,0.1-0.5,0.1
				c-0.3,0.1-0.7,0.1-1.2,0.1c-0.4,0-0.9,0-1.2-0.1c-0.2,0-0.3-0.1-0.5-0.1v0.4c0,0.1,0.1,0.2,0.2,0.2c0.2,0,0.4,0.1,0.6,0.4
				c0.3,0.5,0.1,0.8,0.1,0.8s0.2,0.1,0.8,0.2v0c0,0,0,0,0,0s0,0,0,0v0c0.5,0,0.7-0.2,0.7-0.2S409,264.6,409.3,264.2z"/>
			<polygon class="st1" points="406.6,264 406.6,264 406.6,264 			"/>
			<path class="st1" d="M406.6,264C406.6,264,406.6,264,406.6,264C406.6,264,406.6,264,406.6,264C406.6,264,406.6,264,406.6,264
				C406.5,264,406.5,264,406.6,264L406.6,264C406.5,264,406.5,264,406.6,264c-0.2,0.1-0.4,0.3-0.6,0.5c-0.7,0.7-0.5,1.3-0.4,1.5
				c0.2,0.4,0.4,0.7,0.4,0.8c0.1,0.2,0.4,0.3,0.6,0.3c0.1,0,0.3,0,0.4-0.1c0.3-0.2,0.4-0.6,0.1-1c0,0-0.1-0.2-0.3-0.5
				c0.1-0.1,0.3-0.2,0.4-0.3c0,0,0,0,0,0c0.4-0.2,0.4-0.6,0.3-0.9C407.3,264,406.9,263.8,406.6,264z"/>
			<path class="st1" d="M410.3,264C410.3,264,410.3,264,410.3,264C410.3,264,410.3,264,410.3,264C410.3,264,410.3,264,410.3,264z"/>
			<path class="st1" d="M410.3,264C410.3,264,410.3,264,410.3,264C410.3,264,410.3,264,410.3,264c-0.4-0.2-0.8-0.1-1,0.3
				c-0.2,0.3-0.1,0.7,0.3,0.9c0,0,0,0,0,0c0.1,0.1,0.3,0.2,0.4,0.3c-0.1,0.3-0.3,0.5-0.3,0.5c-0.2,0.3-0.2,0.7,0.1,1
				c0.1,0.1,0.3,0.1,0.4,0.1c0.2,0,0.4-0.1,0.6-0.3c0,0,0.2-0.3,0.4-0.8c0.1-0.2,0.3-0.9-0.4-1.5C410.7,264.2,410.5,264.1,410.3,264
				z"/>
		</g>
	</g>
	<g>
		<circle class="st13" cx="408.4" cy="217.6" r="7"/>
		<g>
			<circle class="st1" cx="407.9" cy="214" r="1.2"/>
			<path class="st1" d="M411.7,220.5l-1.2-1.7c-0.1-0.2-0.3-0.3-0.6-0.3h-1.3v-1v-1.1v-0.1c0-0.4-0.3-0.7-0.7-0.7s-0.7,0.3-0.7,0.7
				v2.9c0,0.4,0.3,0.7,0.7,0.7h1.7l1,1.4c0.1,0.2,0.3,0.3,0.6,0.3c0.1,0,0.3,0,0.4-0.1C411.9,221.2,411.9,220.8,411.7,220.5z"/>
			<path class="st1" d="M407.9,221.8c-1.3,0-2.3-1.1-2.3-2.3c0-0.9,0.5-1.7,1.2-2.1v-0.6c-1,0.4-1.8,1.5-1.8,2.7
				c0,1.6,1.3,2.9,2.9,2.9c0.9,0,1.7-0.4,2.2-1l-0.3-0.5C409.4,221.4,408.7,221.8,407.9,221.8z"/>
		</g>
	</g>
	<g>
		<circle class="st13" cx="417.1" cy="286.4" r="7"/>
		<g>
			<circle class="st1" cx="417.1" cy="282.7" r="1"/>
			<path class="st1" d="M420,285.9l-0.8-0.9l-0.4-0.4l-0.4-0.4c-0.1-0.1-0.2-0.2-0.3-0.2l0,0h-0.1h-0.4h-0.1h-0.9h-0.1h-0.4H416l0,0
				c-0.1,0-0.2,0.1-0.3,0.2l-0.4,0.4l-0.4,0.4l-0.8,0.9c-0.2,0.2-0.1,0.5,0,0.6c0.2,0.2,0.4,0.1,0.6-0.1l0.4-0.4l0.4-0.4l0.4-0.4
				c0,0-1,4.3-1,4.3h1.1v0.2v0.5v0.6c0,0.3,0.2,0.5,0.4,0.5c0.2,0,0.4-0.2,0.4-0.5v-1.1v-0.2h0.4v0.2v0.5v0.6c0,0.3,0.2,0.5,0.4,0.5
				c0.2,0,0.4-0.2,0.4-0.5v-1.1v-0.2h1.1c0,0-1-4.3-1-4.3l0.3,0.4l0.4,0.4l0.4,0.4c0.2,0.2,0.4,0.2,0.6,0.1
				C420.1,286.3,420.2,286.1,420,285.9z"/>
		</g>
	</g>
	<g>
		<circle class="st13" cx="397.7" cy="239.9" r="7"/>
		<g>
			<circle class="st1" cx="397.8" cy="236.1" r="1"/>
			<path class="st1" d="M400.7,239.3l-0.8-0.9l-0.4-0.4l-0.4-0.4c-0.1-0.1-0.2-0.2-0.3-0.2l0,0h-0.1h-0.4h-0.1h-0.9h-0.1h-0.4h-0.1
				l0,0c-0.1,0-0.2,0.1-0.3,0.2L396,238l-0.4,0.4l-0.8,0.9c-0.2,0.2-0.1,0.5,0,0.6c0.2,0.2,0.4,0.1,0.6-0.1l0.4-0.4l0.4-0.4l0.4-0.4
				c0,0,0,0.1,0,0.1v2.5l0,0v1.8v0.5v0.6c0,0.3,0.2,0.5,0.4,0.5c0.3,0,0.5-0.2,0.5-0.5V243v-0.6v-0.9h0.5v1.5v0.5v0.6
				c0,0.3,0.2,0.5,0.4,0.5c0.3,0,0.5-0.2,0.5-0.5V243v-0.6V241c0,0,0,0,0,0v-2.3c0,0,0-0.1,0-0.1l0.3,0.4l0.4,0.4l0.4,0.4
				c0.2,0.2,0.4,0.2,0.6,0.1C400.8,239.8,400.8,239.5,400.7,239.3z"/>
		</g>
	</g>
	<rect x="279.5" y="517.8" class="st14" width="80.9" height="12.1"/>
	<text transform="matrix(1 0 0 1 279.4581 525.595)" class="st15 st16">MAIN ENTRY</text>
	<rect x="88.1" y="481" class="st14" width="80.9" height="12.1"/>
	<text transform="matrix(1 0 0 1 88.0546 488.846)" class="st15 st16">CARPARK</text>
	<rect x="216.7" y="288.7" class="st14" width="98.4" height="37.2"/>
	<text transform="matrix(1 0 0 1 216.6671 296.4872)"><tspan x="0" y="0" class="st15 st16">TERRACE &amp;  </tspan><tspan x="0" y="13.2" class="st15 st16">SEATING AREA</tspan></text>
	<rect x="538.3" y="340" class="st14" width="98.4" height="37.2"/>
	<text transform="matrix(1 0 0 1 538.2762 347.8205)" class="st15 st16">COURT AREA</text>
	<rect x="1079.6" y="565.2" class="st14" width="140.4" height="39.5"/>
	<text transform="matrix(1 0 0 1 1079.5945 572.9825)" class="st15 st16">LOADING DOCK</text>
	<g>
		<g>
			<circle class="st13" cx="562.2" cy="311.7" r="7"/>
		</g>
		<g>
			<path class="st1" d="M561.5,316.6c-0.1-0.1-0.1-0.1-0.1-0.2v-0.8c-0.5-0.1-1-0.2-1.4-0.4c-0.4-0.2-0.7-0.5-0.9-0.8
				c-0.2-0.3-0.3-0.6-0.3-1c0-0.1,0-0.1,0.1-0.2c0,0,0.1-0.1,0.2-0.1h1.5c0.1,0,0.2,0,0.2,0s0.1,0.1,0.2,0.2
				c0.2,0.4,0.6,0.6,1.3,0.6c0.4,0,0.7-0.1,0.9-0.2c0.2-0.1,0.3-0.3,0.3-0.5c0-0.2-0.1-0.3-0.2-0.4s-0.3-0.2-0.5-0.3
				c-0.2-0.1-0.6-0.2-1.1-0.3c-0.9-0.2-1.6-0.4-2-0.8c-0.4-0.4-0.7-0.9-0.7-1.5c0-0.6,0.2-1.1,0.6-1.5c0.4-0.4,1-0.7,1.7-0.8v-0.8
				c0-0.1,0-0.1,0.1-0.2c0.1-0.1,0.1-0.1,0.2-0.1h1c0.1,0,0.1,0,0.2,0.1c0.1,0.1,0.1,0.1,0.1,0.2v0.8c0.5,0.1,0.9,0.2,1.3,0.5
				c0.4,0.2,0.6,0.5,0.8,0.8c0.2,0.3,0.3,0.6,0.3,0.8c0,0.1,0,0.1-0.1,0.2s-0.1,0.1-0.2,0.1h-1.5c-0.2,0-0.3-0.1-0.4-0.2
				c0-0.2-0.2-0.3-0.3-0.4s-0.4-0.2-0.7-0.2c-0.3,0-0.5,0.1-0.7,0.2c-0.2,0.1-0.3,0.3-0.3,0.5c0,0.2,0.1,0.4,0.3,0.5
				c0.2,0.1,0.6,0.2,1.2,0.4c0.7,0.1,1.2,0.3,1.6,0.5s0.7,0.4,0.9,0.7c0.2,0.3,0.3,0.7,0.3,1.1c0,0.6-0.2,1.2-0.7,1.6
				c-0.5,0.4-1.1,0.7-1.9,0.8v0.8c0,0.1,0,0.1-0.1,0.2s-0.1,0.1-0.2,0.1h-1C561.6,316.7,561.5,316.7,561.5,316.6z"/>
		</g>
	</g>
	<polygon points="378,519.8 383.4,510.4 372.6,504.9 374.5,510 360.3,513.4 362,517.9 376.1,514.5 	"/>
	<g>
		<polyline class="st17" points="837.9,264.8 988.3,264.8 988.3,310.3 837.9,310.3 		"/>
		<g>
			<defs>
				<path id="SVGID_3_" d="M962.8,294.7c-0.6,0-1.1-0.1-1.7-0.2c-0.9,1.2-2,2.2-3.3,2.9c1.1,0.6,2.4,1,3.8,1c5.2,0,8.8-5.5,9.2-10.1
					C970.8,288.9,969.7,294.7,962.8,294.7"/>
			</defs>
			<clipPath id="SVGID_4_">
				<use xlink:href="#SVGID_3_"  style="overflow:visible;"/>
			</clipPath>
			
				<linearGradient id="SVGID_5_" gradientUnits="userSpaceOnUse" x1="453.2006" y1="951.4572" x2="454.6978" y2="951.4572" gradientTransform="matrix(-5.501 -1.2836 1.2836 -5.501 2240.5283 6110.0894)">
				<stop  offset="0" style="stop-color:#06984F"/>
				<stop  offset="0.1209" style="stop-color:#06984F"/>
				<stop  offset="0.1692" style="stop-color:#129C4F"/>
				<stop  offset="0.4628" style="stop-color:#55B352"/>
				<stop  offset="0.7089" style="stop-color:#86C454"/>
				<stop  offset="0.8952" style="stop-color:#A5CE55"/>
				<stop  offset="1" style="stop-color:#B0D255"/>
			</linearGradient>
			<polygon class="st18" points="973.2,288.8 958.6,285.4 955.7,297.9 970.3,301.3 			"/>
		</g>
		<g>
			<defs>
				<path id="SVGID_6_" d="M960.4,281.7c2.6,0.3,5.8,2.1,5.8,5.9c0,3.7-2.4,5.4-4.4,5.9c-0.2,0.3-0.4,0.7-0.6,1
					c0.5,0.1,1.1,0.2,1.7,0.2c6.8,0,7.9-5.8,8.1-6.4c0-0.3,0-0.6,0-0.9c0-5.2-4-7.2-6.8-7.2C961.6,280.2,960.4,281.7,960.4,281.7"/>
			</defs>
			<clipPath id="SVGID_7_">
				<use xlink:href="#SVGID_6_"  style="overflow:visible;"/>
			</clipPath>
			
				<linearGradient id="SVGID_8_" gradientUnits="userSpaceOnUse" x1="453.9332" y1="827.5037" x2="455.4304" y2="827.5037" gradientTransform="matrix(0 12.4287 -12.4287 0 11250.4873 -5365.5571)">
				<stop  offset="0" style="stop-color:#10A84D"/>
				<stop  offset="7.577156e-02" style="stop-color:#33B14F"/>
				<stop  offset="0.1722" style="stop-color:#59BB51"/>
				<stop  offset="0.2728" style="stop-color:#79C452"/>
				<stop  offset="0.377" style="stop-color:#91CA53"/>
				<stop  offset="0.4866" style="stop-color:#A2CE54"/>
				<stop  offset="0.6048" style="stop-color:#ADD155"/>
				<stop  offset="0.7473" style="stop-color:#B0D255"/>
				<stop  offset="1" style="stop-color:#B0D255"/>
			</linearGradient>
			<rect x="960.4" y="280.2" class="st19" width="10.6" height="14.5"/>
		</g>
		<g>
			<defs>
				<path id="SVGID_9_" d="M944.8,287.4c0,0.3,0,0.6,0,0.9c0.2,0.6,1.2,6.4,8.1,6.4c1.5,0,2.7-0.4,3.7-1.2c-0.4,0.1-0.8,0.2-1.2,0.2
					c-1.9,0-5.9-1.4-5.9-6.2c0-3.8,3.2-5.6,5.8-5.9c0,0-1.2-1.5-3.7-1.5C948.8,280.2,944.8,282.2,944.8,287.4"/>
			</defs>
			<clipPath id="SVGID_10_">
				<use xlink:href="#SVGID_9_"  style="overflow:visible;"/>
			</clipPath>
			
				<linearGradient id="SVGID_11_" gradientUnits="userSpaceOnUse" x1="453.8924" y1="827.8743" x2="455.3896" y2="827.8743" gradientTransform="matrix(0 12.4157 -12.4157 0 11229.3984 -5359.145)">
				<stop  offset="0" style="stop-color:#10A84D"/>
				<stop  offset="7.577156e-02" style="stop-color:#33B14F"/>
				<stop  offset="0.1722" style="stop-color:#59BB51"/>
				<stop  offset="0.2728" style="stop-color:#79C452"/>
				<stop  offset="0.377" style="stop-color:#91CA53"/>
				<stop  offset="0.4866" style="stop-color:#A2CE54"/>
				<stop  offset="0.6048" style="stop-color:#ADD155"/>
				<stop  offset="0.7473" style="stop-color:#B0D255"/>
				<stop  offset="1" style="stop-color:#B0D255"/>
			</linearGradient>
			<rect x="944.8" y="280.2" class="st20" width="11.9" height="14.5"/>
		</g>
		<g>
			<defs>
				<path id="SVGID_12_" d="M952.9,287.7C952.9,287.7,952.9,287.7,952.9,287.7c0,0.1,0,0.2,0,0.3c0,0.4-0.1,0.8-0.1,1.2
					c0,1.8,0.8,3.5,1.4,4.4c0.5,0.1,1,0.2,1.4,0.2c0.4,0,0.8-0.1,1.2-0.3c0.5-0.3,0.9-0.7,1.2-1.1c-0.2-0.3-1.4-1.8-1.4-3.8
					c0-1.9,1-2.7,1.3-2.9v0h0c-0.7-0.5-1.5-0.7-1.9-0.7C955.3,285,953.3,285.5,952.9,287.7"/>
			</defs>
			<clipPath id="SVGID_13_">
				<use xlink:href="#SVGID_12_"  style="overflow:visible;"/>
			</clipPath>
			
				<linearGradient id="SVGID_14_" gradientUnits="userSpaceOnUse" x1="414.0796" y1="799.6844" x2="415.5768" y2="799.6844" gradientTransform="matrix(0 6.1159 -6.1159 0 5846.1074 -2247.54)">
				<stop  offset="0" style="stop-color:#06984F"/>
				<stop  offset="0.1868" style="stop-color:#06984F"/>
				<stop  offset="0.391" style="stop-color:#42AC51"/>
				<stop  offset="0.7802" style="stop-color:#B0D255"/>
				<stop  offset="1" style="stop-color:#B0D255"/>
			</linearGradient>
			<rect x="952.7" y="285" class="st21" width="5.2" height="8.8"/>
		</g>
		<g>
			<defs>
				<path id="SVGID_15_" d="M952.9,287.7c0.5-2.2,2.4-2.7,2.9-2.7c0.7,0,1.4,0.1,2.1,0.6c0,0,0,0,0,0c0.8,0.6,1.4,1.5,1.4,3
					c0,1.3-0.5,2.6-1.4,3.7c-1.1,1.3-2.9,2.3-5,2.3c-6.9,0-7.9-5.8-8.1-6.4c0.4,4.6,4,10.1,9.2,10.1c5.1,0,9-5.2,9-9.5
					c0-3-1.7-5.7-5.2-5.7C954.8,283.2,953.3,285.6,952.9,287.7"/>
			</defs>
			<clipPath id="SVGID_16_">
				<use xlink:href="#SVGID_15_"  style="overflow:visible;"/>
			</clipPath>
			
				<linearGradient id="SVGID_17_" gradientUnits="userSpaceOnUse" x1="523.7921" y1="866.4102" x2="525.2892" y2="866.4102" gradientTransform="matrix(4.5679 -17.2315 17.2315 4.5679 -16369.9678 5365.585)">
				<stop  offset="0" style="stop-color:#06984F"/>
				<stop  offset="5.494690e-02" style="stop-color:#06984F"/>
				<stop  offset="0.1177" style="stop-color:#29A450"/>
				<stop  offset="0.214" style="stop-color:#59B452"/>
				<stop  offset="0.3056" style="stop-color:#7FC153"/>
				<stop  offset="0.3901" style="stop-color:#9ACA54"/>
				<stop  offset="0.4648" style="stop-color:#AAD055"/>
				<stop  offset="0.522" style="stop-color:#B0D255"/>
				<stop  offset="1" style="stop-color:#B0D255"/>
			</linearGradient>
			<polygon class="st22" points="961.9,302.9 966.9,284.2 946.1,278.7 941.1,297.4 			"/>
		</g>
		<g>
			<defs>
				<path id="SVGID_18_" d="M961.5,274.8c-0.8,0-1.7,0.2-2.6,0.7c-1.6,0.9-2.1,2.5-2,3.5c0.1,1.4,1.2,2.5,1.2,2.5s0.2-1.7,2.1-2.9
					c2.6-1.6,5.5-0.3,5.5-0.3c0,0,0-0.1,0-0.1v-0.4C965.6,276.4,963.8,274.8,961.5,274.8L961.5,274.8z"/>
			</defs>
			<clipPath id="SVGID_19_">
				<use xlink:href="#SVGID_18_"  style="overflow:visible;"/>
			</clipPath>
			
				<linearGradient id="SVGID_20_" gradientUnits="userSpaceOnUse" x1="571.3057" y1="840.6913" x2="572.8028" y2="840.6913" gradientTransform="matrix(5.2786 -5.2106 5.2106 5.2786 -6439.3271 -1178.4313)">
				<stop  offset="0" style="stop-color:#5CB148"/>
				<stop  offset="0.323" style="stop-color:#78BC4C"/>
				<stop  offset="1" style="stop-color:#B0D255"/>
			</linearGradient>
			<polygon class="st23" points="961.2,285.9 969.1,278.2 961.3,270.3 953.5,278.1 			"/>
		</g>
		<rect x="889.4" y="279.1" class="st1" width="1.2" height="14.9"/>
		<path class="st1" d="M888,288.7c0,3.3-1.8,5.5-4.5,5.5c-2.8,0-4.6-2.2-4.6-5.5c0-3.4,1.8-5.5,4.6-5.5
			C886.3,283.1,888,285.3,888,288.7 M880.3,288.7c0,2.6,1.4,4.5,3.2,4.5c1.9,0,3.2-1.9,3.2-4.5c0-2.6-1.3-4.5-3.2-4.5
			C881.5,284.2,880.3,286,880.3,288.7"/>
		<path class="st1" d="M913.8,288.7c0,3.3-1.8,5.5-4.5,5.5c-2.8,0-4.6-2.2-4.6-5.5c0-3.4,1.8-5.5,4.6-5.5
			C912,283.1,913.8,285.3,913.8,288.7 M906,288.7c0,2.6,1.4,4.5,3.2,4.5c1.9,0,3.2-1.9,3.2-4.5c0-2.6-1.3-4.5-3.2-4.5
			C907.3,284.2,906,286,906,288.7"/>
		<path class="st1" d="M878,288.7c0,3.3-1.8,5.5-4.5,5.5c-2.8,0-4.6-2.2-4.6-5.5c0-3.4,1.8-5.5,4.6-5.5
			C876.3,283.1,878,285.3,878,288.7 M870.2,288.7c0,2.6,1.4,4.5,3.2,4.5c1.9,0,3.2-1.9,3.2-4.5c0-2.6-1.3-4.5-3.2-4.5
			C871.5,284.2,870.2,286,870.2,288.7"/>
		<path class="st1" d="M927.1,283.4v0.5c0,0.5,0,0.9-0.1,1.4c0.7-1.3,1.9-2.1,3.3-2.1c2.3,0,3.2,1.7,3.3,3.9c0,0.5,0.1,1.4,0.1,1.9
			v4.9h-1.2V289c0-0.6,0-1.6-0.1-2.1c-0.1-1.7-1-2.6-2.3-2.6c-1.1,0-2.1,0.7-2.7,1.9c-0.2,0.4-0.3,0.8-0.3,1.7c0,0.3,0,1,0,1.2v4.9
			h-1.2v-14.9h1.2V283.4z"/>
		<path class="st1" d="M940.3,284.6c-0.8-0.3-1.2-0.4-2-0.4c-1.2,0-2.1,0.7-2.1,1.6c0,2.2,5,1.9,5,5.3c0,1.8-1.5,3-3.6,3
			c-0.9,0-1.7-0.2-2.6-0.5l0.1-1.2c0.9,0.5,1.6,0.7,2.4,0.7c1.4,0,2.4-0.9,2.4-2c0-2.5-4.8-2.1-4.8-5.3c0-1.6,1.3-2.7,3.3-2.7
			c0.8,0,1.1,0,2.1,0.4L940.3,284.6z"/>
		<path class="st1" d="M898.7,283.4c0,0,1.5,6,1.8,7.4c0.1,0.7,0.4,1.7,0.4,1.7s0.2-1,0.4-1.7c0.4-1.4,2.1-7.4,2.1-7.4h1.3
			l-3.1,10.6h-1.4c0,0-1.6-7-1.8-7.9c-0.1-0.4-0.2-1.1-0.2-1.1s-0.1,0.7-0.2,1.1c-0.2,0.9-1.8,7.9-1.8,7.9h-1.4l-3.1-10.6h1.3
			c0,0,1.7,6,2.1,7.4c0.2,0.7,0.4,1.7,0.4,1.7s0.2-1,0.4-1.7c0.3-1.4,1.8-7.4,1.8-7.4H898.7z"/>
		<path class="st1" d="M862.4,281.8c0,0,2,7.2,2.3,8.5c0.2,0.7,0.5,1.9,0.5,1.9s0.3-1.2,0.4-1.9c0.3-1.2,2.2-8.5,2.2-8.5h1.3
			l-3.1,12.2h-1.4c0,0-2.3-8.8-2.4-9.3c-0.1-0.5-0.3-1.3-0.3-1.3s-0.2,0.9-0.3,1.3c-0.1,0.5-2.4,9.3-2.4,9.3h-1.4l-3.1-12.2h1.3
			c0,0,1.9,7.2,2.2,8.5c0.2,0.7,0.4,1.9,0.4,1.9s0.3-1.2,0.5-1.9c0.3-1.2,2.3-8.5,2.3-8.5H862.4z"/>
		<path class="st1" d="M915.1,294v-10.6h1v2.4c0,0,0.6-2.3,3.8-2.4c0.4,0,1,0,1,0v-2.7l1.2-0.5v3.1h2.5v1.1h-2.5v6.4
			c0,1.5,0.5,2,1.5,2c0.6,0,1-0.2,1-0.2l0.1,1c0,0-0.6,0.2-1.2,0.2c-0.3,0-1.3,0-2-0.6c-0.4-0.4-0.7-1.2-0.7-2.5c0-1.2,0-6.4,0-6.4
			c-0.4,0-1.3-0.1-2,0.1c-1,0.3-2.6,1.3-2.6,3.8v5.6H915.1z"/>
	</g>
</g>
</svg>
